<?xml version="1.0" encoding="UTF-8" standalone="no"?>
<svg
   xmlns:osb="http://www.openswatchbook.org/uri/2009/osb"
   xmlns:dc="http://purl.org/dc/elements/1.1/"
   xmlns:cc="http://creativecommons.org/ns#"
   xmlns:rdf="http://www.w3.org/1999/02/22-rdf-syntax-ns#"
   xmlns:svg="http://www.w3.org/2000/svg"
   xmlns="http://www.w3.org/2000/svg"
   xmlns:xlink="http://www.w3.org/1999/xlink"
   xmlns:sodipodi="http://sodipodi.sourceforge.net/DTD/sodipodi-0.dtd"
   xmlns:inkscape="http://www.inkscape.org/namespaces/inkscape"
   width="112"
   height="50"
   viewBox="0 0 112 50"
   version="1.1"
   id="svg8"
   sodipodi:docname="construction.svg"
   inkscape:version="1.0.2 (1.0.2+r75+1)">
  <defs
     id="defs2">
    <linearGradient
       inkscape:collect="always"
       xlink:href="#Color5"
       id="linearGradient2770"
       x1="2177.3467"
       y1="75"
       x2="2327.3467"
       y2="75"
       gradientUnits="userSpaceOnUse"
       gradientTransform="matrix(0.05333332,0,0,0.05333332,-8.1251418,-3.5295753e-8)" />
    <linearGradient
       id="Color5"
       osb:paint="solid"
       gradientTransform="matrix(1.0800636,0,0,0.56352443,-384.11819,739.34092)">
      <stop
         style="stop-color:#1a1c28;stop-opacity:1;"
         offset="0"
         id="stop2766" />
    </linearGradient>
    <linearGradient
       inkscape:collect="always"
       xlink:href="#Color4"
       id="linearGradient2776"
       x1="2177.3467"
       y1="225"
       x2="2327.3467"
       y2="225"
       gradientUnits="userSpaceOnUse"
       gradientTransform="matrix(0.05333332,0,0,0.05333332,-8.1251418,-3.5295753e-8)" />
    <linearGradient
       id="Color4"
       osb:paint="solid"
       gradientTransform="matrix(1.4464328,0,0,0.99829848,248.00541,-131.80352)">
      <stop
         style="stop-color:#5c3472;stop-opacity:1;"
         offset="0"
         id="stop2772" />
    </linearGradient>
    <linearGradient
       inkscape:collect="always"
       xlink:href="#Color3"
       id="linearGradient2782"
       x1="2177.3467"
       y1="375"
       x2="2327.3467"
       y2="375"
       gradientUnits="userSpaceOnUse"
       gradientTransform="matrix(0.05333332,0,0,0.05333332,-8.1251418,-3.5295753e-8)" />
    <linearGradient
       id="Color3"
       osb:paint="solid"
       gradientTransform="matrix(-0.77315197,-0.50470228,0.09289138,-0.14230008,6981.1521,4449.9815)">
      <stop
         style="stop-color:#cc3d94;stop-opacity:1;"
         offset="0"
         id="stop2778" />
    </linearGradient>
    <linearGradient
       inkscape:collect="always"
       xlink:href="#Color2"
       id="linearGradient2788"
       x1="2177.3467"
       y1="525"
       x2="2327.3467"
       y2="525"
       gradientUnits="userSpaceOnUse"
       gradientTransform="matrix(0.05333332,0,0,0.05333332,-8.1251418,-3.5295753e-8)" />
    <linearGradient
       id="Color2"
       osb:paint="solid"
       gradientTransform="matrix(3.2122372,0,0,0.12080907,-6249.6269,-400.48966)">
      <stop
         style="stop-color:#de6896;stop-opacity:1;"
         offset="0"
         id="stop2784" />
    </linearGradient>
    <linearGradient
       inkscape:collect="always"
       xlink:href="#Color1"
       id="linearGradient2794"
       x1="2177.3467"
       y1="675"
       x2="2327.3467"
       y2="675"
       gradientUnits="userSpaceOnUse"
       gradientTransform="matrix(0.05333332,0,0,0.05333332,-8.1251418,-3.5295753e-8)" />
    <linearGradient
       id="Color1"
       osb:paint="solid"
       gradientTransform="matrix(0.01739998,0,0,0.06067068,681.12444,658.88841)">
      <stop
         style="stop-color:#ed97a6;stop-opacity:1;"
         offset="0"
         id="stop2790" />
    </linearGradient>
    <linearGradient
       inkscape:collect="always"
       xlink:href="#Color5"
       id="linearGradient993"
       gradientTransform="matrix(0.01739998,0,0,0.06067068,681.12444,658.88841)"
       gradientUnits="userSpaceOnUse" />
    <linearGradient
       inkscape:collect="always"
       xlink:href="#Color2"
       id="linearGradient901"
       gradientTransform="matrix(3.2122372,0,0,0.12080907,-6249.6269,-400.48966)"
       gradientUnits="userSpaceOnUse" />
    <linearGradient
       inkscape:collect="always"
       xlink:href="#Color1"
       id="linearGradient914"
       gradientTransform="matrix(3.2122372,0,0,0.12080907,-6249.6269,-400.48966)"
       gradientUnits="userSpaceOnUse" />
    <linearGradient
       inkscape:collect="always"
       xlink:href="#Color3"
       id="linearGradient916"
       gradientTransform="matrix(3.2122372,0,0,0.12080907,-6249.6269,-400.48966)"
       gradientUnits="userSpaceOnUse" />
    <linearGradient
       inkscape:collect="always"
       xlink:href="#Color4"
       id="linearGradient927"
       x1="87.75"
       y1="25.5"
       x2="88.25"
       y2="25.5"
       gradientUnits="userSpaceOnUse" />
    <linearGradient
       inkscape:collect="always"
       xlink:href="#Color3"
       id="linearGradient1119"
       x1="84"
       y1="36.5"
       x2="86"
       y2="36.5"
       gradientUnits="userSpaceOnUse"
       gradientTransform="rotate(-40.361249,89,25.116963)" />
    <linearGradient
       inkscape:collect="always"
       xlink:href="#Color2"
       id="linearGradient1149"
       x1="84.5"
       y1="34.75"
       x2="85.5"
       y2="34.75"
       gradientUnits="userSpaceOnUse"
       gradientTransform="rotate(-40.361249,89,25.116963)" />
    <linearGradient
       inkscape:collect="always"
       xlink:href="#Color3"
       id="linearGradient1178"
       gradientUnits="userSpaceOnUse"
       x1="84"
       y1="36.5"
       x2="86"
       y2="36.5"
       gradientTransform="rotate(-158.85745,51.010487,27.832065)" />
    <linearGradient
       inkscape:collect="always"
       xlink:href="#Color2"
       id="linearGradient1182"
       gradientUnits="userSpaceOnUse"
       x1="84.5"
       y1="34.75"
       x2="85.5"
       y2="34.75"
       gradientTransform="rotate(-158.85745,51.010487,27.832065)" />
    <linearGradient
       inkscape:collect="always"
       xlink:href="#Color3"
       id="linearGradient1200"
       gradientUnits="userSpaceOnUse"
       x1="84"
       y1="36.5"
       x2="86"
       y2="36.5"
       gradientTransform="rotate(-127.55405,69.666107,46.375366)" />
    <linearGradient
       inkscape:collect="always"
       xlink:href="#Color2"
       id="linearGradient1204"
       gradientUnits="userSpaceOnUse"
       x1="84.5"
       y1="34.75"
       x2="85.5"
       y2="34.75"
       gradientTransform="rotate(-127.55405,69.666107,46.375366)" />
    <linearGradient
       inkscape:collect="always"
       xlink:href="#Color2"
       id="linearGradient1315"
       gradientTransform="matrix(-0.77315197,-0.50470228,0.09289138,-0.14230008,7012.4339,4320.5218)"
       gradientUnits="userSpaceOnUse" />
    <linearGradient
       inkscape:collect="always"
       xlink:href="#Color3"
       id="linearGradient1334"
       x1="-5"
       y1="38"
       x2="99.099609"
       y2="38"
       gradientUnits="userSpaceOnUse"
       gradientTransform="translate(8)" />
    <linearGradient
       inkscape:collect="always"
       xlink:href="#Color4"
       id="linearGradient1356"
       x1="-7"
       y1="25"
       x2="103"
       y2="25"
       gradientUnits="userSpaceOnUse"
       gradientTransform="translate(8)" />
    <filter
       inkscape:collect="always"
       style="color-interpolation-filters:sRGB"
       id="filter1433"
       x="0.018431664"
       width="0.96448892"
       y="0.042436719"
       height="0.91433191">
      <feGaussianBlur
         inkscape:collect="always"
         stdDeviation="1.58"
         id="feGaussianBlur1435" />
    </filter>
    <linearGradient
       inkscape:collect="always"
       xlink:href="#Color3"
       id="linearGradient1447"
       x1="-61.138462"
       y1="48.761978"
       x2="-59.141048"
       y2="48.761978"
       gradientUnits="userSpaceOnUse"
       gradientTransform="translate(144.14105,-11.261977)" />
    <linearGradient
       inkscape:collect="always"
       xlink:href="#Color5"
       id="linearGradient1464"
       x1="91.150391"
       y1="37.5"
       x2="92.849609"
       y2="37.5"
       gradientUnits="userSpaceOnUse"
       gradientTransform="translate(-8.0000008)" />
    <linearGradient
       inkscape:collect="always"
       xlink:href="#Color5"
       id="linearGradient1457"
       x1="-8"
       y1="25"
       x2="104"
       y2="25"
       gradientUnits="userSpaceOnUse" />
    <linearGradient
       inkscape:collect="always"
       xlink:href="#Color4"
       id="linearGradient1469"
       x1="-50.999702"
       y1="13.000058"
       x2="27.000462"
       y2="13.000058"
       gradientUnits="userSpaceOnUse" />
    <linearGradient
       inkscape:collect="always"
       xlink:href="#Color3"
       id="linearGradient1475"
       x1="-50.999702"
       y1="12.999898"
       x2="21.000528"
       y2="12.999898"
       gradientUnits="userSpaceOnUse" />
    <linearGradient
       inkscape:collect="always"
       xlink:href="#Color4"
       id="linearGradient1481"
       x1="-51.000458"
       y1="36.999958"
       x2="26.999714"
       y2="36.999958"
       gradientUnits="userSpaceOnUse" />
    <linearGradient
       inkscape:collect="always"
       xlink:href="#Color3"
       id="linearGradient1487"
       x1="-51.000458"
       y1="36.999863"
       x2="20.999714"
       y2="36.999863"
       gradientUnits="userSpaceOnUse" />
    <linearGradient
       inkscape:collect="always"
       xlink:href="#Color5"
       id="linearGradient1493"
       x1="-47.107422"
       y1="25"
       x2="23.107422"
       y2="25"
       gradientUnits="userSpaceOnUse" />
    <linearGradient
       inkscape:collect="always"
       xlink:href="#Color1"
       id="linearGradient1499"
       x1="-50.998955"
       y1="25.000406"
       x2="27.001045"
       y2="25.000406"
       gradientUnits="userSpaceOnUse" />
    <linearGradient
       inkscape:collect="always"
       xlink:href="#Color4"
       id="linearGradient1509"
       x1="3"
       y1="8.5"
       x2="109"
       y2="8.5"
       gradientUnits="userSpaceOnUse" />
    <linearGradient
       inkscape:collect="always"
       xlink:href="#Color1"
       id="linearGradient1515"
       x1="-5"
       y1="41.5"
       x2="101"
       y2="41.5"
       gradientUnits="userSpaceOnUse" />
    <linearGradient
       inkscape:collect="always"
       xlink:href="#Color5"
       id="linearGradient1526"
       x1="-8"
       y1="25"
       x2="104"
       y2="25"
       gradientUnits="userSpaceOnUse" />
    <linearGradient
       inkscape:collect="always"
       xlink:href="#Color1"
       id="linearGradient1537"
       x1="-7"
       y1="25"
       x2="103"
       y2="25"
       gradientUnits="userSpaceOnUse" />
    <linearGradient
       inkscape:collect="always"
       xlink:href="#Color1"
       id="linearGradient1556"
       x1="-5"
       y1="24.86643"
       x2="101"
       y2="24.86643"
       gradientUnits="userSpaceOnUse" />
    <linearGradient
       inkscape:collect="always"
       xlink:href="#Color1"
       id="linearGradient1562"
       x1="40"
       y1="25.392305"
       x2="71"
       y2="25.392305"
       gradientUnits="userSpaceOnUse"
       gradientTransform="translate(28)" />
    <linearGradient
       inkscape:collect="always"
       xlink:href="#Color1"
       id="linearGradient1566"
       x1="10"
       y1="25.392305"
       x2="51"
       y2="25.392305"
       gradientUnits="userSpaceOnUse"
       gradientTransform="translate(24)" />
    <filter
       style="color-interpolation-filters:sRGB"
       inkscape:label="Drop Shadow"
       id="filter2011">
      <feFlood
         flood-opacity="1"
         flood-color="rgb(26,28,40)"
         result="flood"
         id="feFlood2001" />
      <feComposite
         in="SourceGraphic"
         in2="flood"
         operator="in"
         result="composite1"
         id="feComposite2003" />
      <feGaussianBlur
         in="composite1"
         stdDeviation="2"
         result="blur"
         id="feGaussianBlur2005" />
      <feOffset
         dx="2.77556e-17"
         dy="2.77556e-17"
         result="offset"
         id="feOffset2007" />
      <feComposite
         in="SourceGraphic"
         in2="offset"
         operator="over"
         result="composite2"
         id="feComposite2009" />
    </filter>
    <linearGradient
       inkscape:collect="always"
       xlink:href="#Color1"
       id="linearGradient2026"
       gradientUnits="userSpaceOnUse"
       x1="10"
       y1="25.392305"
       x2="51"
       y2="25.392305"
       gradientTransform="translate(-16)" />
  </defs>
  <sodipodi:namedview
     id="base"
     pagecolor="#ffffff"
     bordercolor="#666666"
     borderopacity="1.0"
     inkscape:pageopacity="0"
     inkscape:pageshadow="2"
     inkscape:zoom="7.4867542"
     inkscape:cx="19.359859"
     inkscape:cy="22.772799"
     inkscape:document-units="px"
     inkscape:current-layer="layer1"
     inkscape:document-rotation="0"
     showgrid="false"
     units="px"
     inkscape:object-paths="true"
     inkscape:snap-intersection-paths="true"
     inkscape:snap-smooth-nodes="true"
     inkscape:window-width="1920"
     inkscape:window-height="1017"
     inkscape:window-x="0"
     inkscape:window-y="30"
     inkscape:window-maximized="1"
     fit-margin-top="0"
     fit-margin-left="0"
     fit-margin-right="0"
     fit-margin-bottom="0"
     inkscape:snap-midpoints="true"
     inkscape:snap-nodes="true"
     inkscape:snap-grids="true"
     showguides="true"
     inkscape:guide-bbox="true">
    <inkscape:grid
       type="xygrid"
       id="grid841"
       empspacing="4"
       originx="8"
       originy="0"
       spacingx="0.5"
       spacingy="0.5" />
  </sodipodi:namedview>
  <metadata
     id="metadata5">
    <rdf:RDF>
      <cc:Work
         rdf:about="">
        <dc:format>image/svg+xml</dc:format>
        <dc:type
           rdf:resource="http://purl.org/dc/dcmitype/StillImage" />
        <dc:title />
      </cc:Work>
    </rdf:RDF>
  </metadata>
  <g
     inkscape:groupmode="layer"
     id="layer3"
     inkscape:label="background"
     style="display:inline"
     sodipodi:insensitive="true">
    <rect
       style="opacity:1;fill:url(#linearGradient1457);fill-opacity:1;stroke:none;stroke-width:4;stroke-linecap:round;stroke-linejoin:round;stroke-dasharray:4, 24"
       id="rect885"
       width="112"
       height="50"
       x="-8"
       y="0"
       rx="10"
       ry="10"
       transform="translate(8)" />
    <circle
       style="display:inline;opacity:0.25;fill:none;stroke:url(#Color3);stroke-width:1;stroke-linecap:round;stroke-linejoin:round;stroke-miterlimit:4;stroke-dasharray:none;stroke-dashoffset:0;filter:url(#filter2011)"
       id="path1987"
       cx="47.999996"
       cy="305.87158"
       r="266.367"
       transform="translate(8)" />
  </g>
  <g
     inkscape:label="board"
     inkscape:groupmode="layer"
     id="layer1"
     transform="translate(8)"
     style="display:inline">
    <text
       xml:space="preserve"
       style="font-size:40px;line-height:1.25;font-family:'Emoji One';-inkscape-font-specification:'Emoji One';opacity:1;fill:#1a1c28;fill-opacity:1"
       x="21"
       y="12"
       id="text847"><tspan
         sodipodi:role="line"
         id="tspan845"
         x="21"
         y="12" /></text>
    <g
       id="g1164"
       transform="rotate(-40.361249,85,36)">
      <path
         id="path1107"
         style="fill:url(#linearGradient1119);fill-opacity:1;stroke:none;stroke-width:1px;stroke-linecap:butt;stroke-linejoin:miter;stroke-opacity:1"
         d="m 92.199219,32.742188 -2.285157,1.943359 1.410157,0.115234 2.914062,3.427735 0.705078,0.05664 L 95,37.582031 92.085938,34.152344 Z"
         transform="rotate(40.361249,89,25.116963)" />
      <path
         id="path1129"
         style="fill:url(#linearGradient1149);fill-opacity:1;stroke:none;stroke-width:1px;stroke-linecap:butt;stroke-linejoin:miter;stroke-opacity:1"
         d="m 92.410156,34.533203 -1.085937,0.267578 0.646484,0.761719 1.085938,-0.267578 z m 1.132813,1.333985 -1.085938,0.265624 0.648438,0.761719 1.085937,-0.265625 z m 0.970703,1.142578 -1.085938,0.265625 0.648438,0.763671 0.904297,-0.224609 L 95,37.582031 Z"
         transform="rotate(40.361249,89,25.116963)" />
    </g>
    <g
       id="g933"
       transform="rotate(53.39618,105.49923,19.169733)">
      <path
         id="path894"
         style="color:#000000;font-style:normal;font-variant:normal;font-weight:normal;font-stretch:normal;font-size:medium;line-height:normal;font-family:sans-serif;font-variant-ligatures:normal;font-variant-position:normal;font-variant-caps:normal;font-variant-numeric:normal;font-variant-alternates:normal;font-variant-east-asian:normal;font-feature-settings:normal;font-variation-settings:normal;text-indent:0;text-align:start;text-decoration:none;text-decoration-line:none;text-decoration-style:solid;text-decoration-color:#000000;letter-spacing:normal;word-spacing:normal;text-transform:none;writing-mode:lr-tb;direction:ltr;text-orientation:mixed;dominant-baseline:auto;baseline-shift:baseline;text-anchor:start;white-space:normal;shape-padding:0;shape-margin:0;inline-size:0;clip-rule:nonzero;display:inline;overflow:visible;visibility:visible;opacity:1;isolation:auto;mix-blend-mode:normal;color-interpolation:sRGB;color-interpolation-filters:linearRGB;solid-color:#000000;solid-opacity:1;vector-effect:none;fill:url(#linearGradient901);fill-opacity:1;fill-rule:nonzero;stroke:none;stroke-linecap:butt;stroke-linejoin:miter;stroke-miterlimit:4;stroke-dasharray:none;stroke-dashoffset:0;stroke-opacity:1;color-rendering:auto;image-rendering:auto;shape-rendering:auto;text-rendering:auto;enable-background:accumulate;stop-color:#000000;stop-opacity:1"
         d="M 95.5,22 C 95.223858,22 95,22.223858 95,22.5 v 6 h 2 v -6 C 97,22.223858 96.776142,22 96.5,22 Z"
         transform="translate(-8)"
         sodipodi:nodetypes="ssccsss" />
      <path
         id="path906"
         style="color:#000000;font-style:normal;font-variant:normal;font-weight:normal;font-stretch:normal;font-size:medium;line-height:normal;font-family:sans-serif;font-variant-ligatures:normal;font-variant-position:normal;font-variant-caps:normal;font-variant-numeric:normal;font-variant-alternates:normal;font-variant-east-asian:normal;font-feature-settings:normal;font-variation-settings:normal;text-indent:0;text-align:start;text-decoration:none;text-decoration-line:none;text-decoration-style:solid;text-decoration-color:#000000;letter-spacing:normal;word-spacing:normal;text-transform:none;writing-mode:lr-tb;direction:ltr;text-orientation:mixed;dominant-baseline:auto;baseline-shift:baseline;text-anchor:start;white-space:normal;shape-padding:0;shape-margin:0;inline-size:0;clip-rule:nonzero;display:inline;overflow:visible;visibility:visible;opacity:1;isolation:auto;mix-blend-mode:normal;color-interpolation:sRGB;color-interpolation-filters:linearRGB;solid-color:#000000;solid-opacity:1;vector-effect:none;fill:url(#linearGradient914);fill-opacity:1;fill-rule:nonzero;stroke:none;stroke-linecap:butt;stroke-linejoin:miter;stroke-miterlimit:4;stroke-dasharray:none;stroke-dashoffset:0;stroke-opacity:1;color-rendering:auto;image-rendering:auto;shape-rendering:auto;text-rendering:auto;enable-background:accumulate;stop-color:#000000;stop-opacity:1"
         d="m 95.75,28.5 v 9.249905 c 0,0.164048 -0.288111,0.325853 -0.361328,0.472656 l -0.02734,0.05469 c -0.0717,0.143969 -0.08971,0.30879 -0.05078,0.464844 L 95.75,40 h 0.5 l 0.439453,-1.257907 c 0.03893,-0.156054 0.02092,-0.320875 -0.05078,-0.464844 l -0.02734,-0.05469 C 96.538111,38.075758 96.25,37.913953 96.25,37.749905 V 28.5 Z"
         transform="translate(-8)"
         sodipodi:nodetypes="csccccccccscc" />
      <path
         style="color:#000000;font-style:normal;font-variant:normal;font-weight:normal;font-stretch:normal;font-size:medium;line-height:normal;font-family:sans-serif;font-variant-ligatures:normal;font-variant-position:normal;font-variant-caps:normal;font-variant-numeric:normal;font-variant-alternates:normal;font-variant-east-asian:normal;font-feature-settings:normal;font-variation-settings:normal;text-indent:0;text-align:start;text-decoration:none;text-decoration-line:none;text-decoration-style:solid;text-decoration-color:#000000;letter-spacing:normal;word-spacing:normal;text-transform:none;writing-mode:lr-tb;direction:ltr;text-orientation:mixed;dominant-baseline:auto;baseline-shift:baseline;text-anchor:start;white-space:normal;shape-padding:0;shape-margin:0;inline-size:0;clip-rule:nonzero;display:inline;overflow:visible;visibility:visible;opacity:1;isolation:auto;mix-blend-mode:normal;color-interpolation:sRGB;color-interpolation-filters:linearRGB;solid-color:#000000;solid-opacity:1;vector-effect:none;fill:url(#linearGradient927);fill-opacity:1;fill-rule:nonzero;stroke:none;stroke-linecap:round;stroke-linejoin:miter;stroke-miterlimit:4;stroke-dasharray:none;stroke-dashoffset:0;stroke-opacity:1;color-rendering:auto;image-rendering:auto;shape-rendering:auto;text-rendering:auto;enable-background:accumulate;stop-color:#000000;stop-opacity:1"
         d="M 88,22.75 A 0.25,0.25 0 0 0 87.75,23 v 5 A 0.25,0.25 0 0 0 88,28.25 0.25,0.25 0 0 0 88.25,28 V 23 A 0.25,0.25 0 0 0 88,22.75 Z"
         id="path921" />
      <path
         id="path1005"
         style="color:#000000;font-style:normal;font-variant:normal;font-weight:normal;font-stretch:normal;font-size:medium;line-height:normal;font-family:sans-serif;font-variant-ligatures:normal;font-variant-position:normal;font-variant-caps:normal;font-variant-numeric:normal;font-variant-alternates:normal;font-variant-east-asian:normal;font-feature-settings:normal;font-variation-settings:normal;text-indent:0;text-align:start;text-decoration:none;text-decoration-line:none;text-decoration-style:solid;text-decoration-color:#000000;letter-spacing:normal;word-spacing:normal;text-transform:none;writing-mode:lr-tb;direction:ltr;text-orientation:mixed;dominant-baseline:auto;baseline-shift:baseline;text-anchor:start;white-space:normal;shape-padding:0;shape-margin:0;inline-size:0;clip-rule:nonzero;display:inline;overflow:visible;visibility:visible;opacity:1;isolation:auto;mix-blend-mode:normal;color-interpolation:sRGB;color-interpolation-filters:linearRGB;solid-color:#000000;solid-opacity:1;vector-effect:none;fill:url(#linearGradient916);fill-opacity:1;fill-rule:nonzero;stroke:none;stroke-linecap:butt;stroke-linejoin:miter;stroke-miterlimit:4;stroke-dasharray:none;stroke-dashoffset:0;stroke-opacity:1;color-rendering:auto;image-rendering:auto;shape-rendering:auto;text-rendering:auto;enable-background:accumulate;stop-color:#000000;stop-opacity:1"
         d="M 94.25,28 A 0.25,0.25 0 0 0 94,28.25 v 0.5 A 0.25,0.25 0 0 0 94.236328,29 H 95.75 h 0.5 1.5 A 0.25,0.25 0 0 0 98,28.75 v -0.5 A 0.25,0.25 0 0 0 97.763672,28 H 97 95 Z"
         transform="translate(-8)" />
    </g>
    <g
       id="g1176"
       transform="rotate(-158.85745,47.010487,28.578569)">
      <path
         id="path1166"
         style="fill:url(#linearGradient1178);fill-opacity:1;stroke:none;stroke-width:1px;stroke-linecap:butt;stroke-linejoin:miter;stroke-opacity:1"
         d="M 23.337891,5.15625 22.689453,5.4414062 21.066406,9.6386719 19.773438,10.210938 22.572266,11.292969 22,10 23.623047,5.8027344 Z"
         transform="rotate(158.85745,51.010487,27.832065)" />
      <path
         id="path1170"
         style="fill:url(#linearGradient1182);fill-opacity:1;stroke:none;stroke-width:1px;stroke-linecap:butt;stroke-linejoin:miter;stroke-opacity:1"
         d="m 22.904297,5.3476562 -0.214844,0.09375 -0.269531,0.7011719 0.751953,0.8261719 0.361328,-0.9335938 z m -0.664063,1.2597657 -0.361328,0.9335937 0.751953,0.8261719 0.361329,-0.9316406 z M 21.607422,8.2402344 21.248047,9.1738281 22,10 22.361328,9.0664062 Z"
         transform="rotate(158.85745,51.010487,27.832065)" />
    </g>
    <g
       id="g1198"
       transform="rotate(-127.55405,65.666107,48.345603)">
      <path
         id="path1188"
         style="fill:url(#linearGradient1200);fill-opacity:1;stroke:none;stroke-width:1px;stroke-linecap:butt;stroke-linejoin:miter;stroke-opacity:1"
         d="m 53.771484,38.623047 -3.566406,2.742187 -1.402344,-0.183593 1.828125,2.378906 0.183594,-1.402344 3.566406,-2.742187 0.0918,-0.701172 z"
         transform="rotate(127.55405,69.666107,46.375366)" />
      <path
         id="path1192"
         style="fill:url(#linearGradient1204);fill-opacity:1;stroke:none;stroke-width:1px;stroke-linecap:butt;stroke-linejoin:miter;stroke-opacity:1"
         d="m 53.771484,38.623047 -0.59375,0.457031 0.212891,1.097656 0.792969,-0.609375 -0.179688,-0.916015 z m -0.990234,0.761719 -0.792969,0.609375 0.212891,1.097656 0.792969,-0.609375 z m -1.388672,1.066406 -0.791016,0.609375 0.212891,1.097656 0.792969,-0.609375 z"
         transform="rotate(127.55405,69.666107,46.375366)" />
    </g>
    <rect
       style="fill:url(#linearGradient2770);fill-opacity:1;stroke-width:0.426667;stroke-linejoin:round;stroke-miterlimit:4;stroke-dasharray:none"
       id="rect2754"
       width="7.9999981"
       height="7.9999981"
       x="108"
       y="0" />
    <rect
       style="fill:url(#linearGradient2776);fill-opacity:1;stroke-width:0.426667;stroke-linejoin:round;stroke-miterlimit:4;stroke-dasharray:none"
       id="rect2756"
       width="7.9999981"
       height="7.9999981"
       x="108"
       y="7.9999981" />
    <rect
       style="fill:url(#linearGradient2782);fill-opacity:1;stroke-width:0.426667;stroke-linejoin:round;stroke-miterlimit:4;stroke-dasharray:none"
       id="rect2758"
       width="7.9999981"
       height="7.9999981"
       x="108"
       y="15.999996" />
    <rect
       style="fill:url(#linearGradient2788);fill-opacity:1;stroke-width:0.426667;stroke-linejoin:round;stroke-miterlimit:4;stroke-dasharray:none"
       id="rect2760"
       width="7.9999981"
       height="7.9999981"
       x="108"
       y="23.999996" />
    <rect
       style="fill:url(#linearGradient2794);fill-opacity:1;stroke-width:0.426667;stroke-linejoin:round;stroke-miterlimit:4;stroke-dasharray:none"
       id="rect2762"
       width="7.9999981"
       height="7.9999981"
       x="108"
       y="31.999996" />
    <g
       id="g1086"
       transform="rotate(-15,-44.615668,-516.45591)">
      <path
         id="path777"
         style="fill:url(#Color5);fill-opacity:1"
         d="m -134.264,16.5967 59.993,-5.3261 c 1.2523,-0.1111 2.2711,0.746 2.2711,1.923 l -0.0011,28.6818 c 0,1.177 -1.0189,2.0609 -2.2712,1.9826 l -59.9928,-3.7514 c -0.645,-0.0404 -1.161,-0.7441 -1.161,-1.5781 l 10e-4,-20.3233 c 0,-0.834 0.516,-1.5512 1.161,-1.6085 z" />
      <path
         id="rect845"
         style="fill:url(#linearGradient1499);fill-opacity:1"
         transform="rotate(0.0019486)"
         d="m -134.846,15.8965 59.457,-5.571 c 1.2393,-0.1162 2.2475,0.732 2.2475,1.9028 l -1e-4,28.5314 c 0,1.1708 -1.0082,2.0553 -2.2475,1.9839 l -59.4569,-3.4254 c -0.641,-0.0369 -1.153,-0.7353 -1.153,-1.5662 V 17.5043 c 0,-0.8309 0.512,-1.5477 1.153,-1.6078 z" />
      <path
         id="rect860"
         style="fill:url(#linearGradient1469);fill-opacity:1;stroke-width:2.44949"
         d="m -134.847,15.892 c -0.641,0.06 -1.152,0.7768 -1.152,1.6077 v 3.7496 l 62.8567,-3.7398 1e-4,-5.2836 c 1e-4,-1.1708 -1.0081,-2.019 -2.2474,-1.9029 z" />
      <path
         id="rect862"
         style="fill:url(#linearGradient1475);fill-opacity:1"
         d="m -134.847,15.892 c -0.641,0.06 -1.152,0.7768 -1.152,1.6077 v 3.7496 l 3.509,-0.2088 1.206,-5.4823 z m 8.577,-0.8034 -1.283,5.6582 5.257,-0.3128 1.368,-5.8458 z m 11.046,-1.0346 -1.462,6.0462 5.999,-0.3569 1.565,-6.2609 z m 12.647,-1.1846 -1.681,6.4913 6.9095,-0.411 1.8087,-6.7394 z m 14.6247,-1.3698 -1.9522,7.0072 8.0436,-0.4786 2.1134,-7.2971 z" />
      <path
         id="rect920"
         style="fill:url(#linearGradient1481);fill-opacity:1;stroke-width:2.44949"
         d="m -136,33.9978 v 3.7496 c 0,0.8309 0.512,1.5293 1.152,1.5662 l 59.4572,3.4274 c 1.2393,0.0714 2.2476,-0.813 2.2476,-1.9839 l 2e-4,-5.2835 z" />
      <path
         id="path918"
         style="fill:url(#linearGradient1487);fill-opacity:1"
         d="m -136,33.9978 v 3.7496 c 0,0.8309 0.512,1.5293 1.152,1.5662 l 2.358,0.1359 1.206,-5.341 z m 9.73,0.2285 -1.283,5.5078 5.257,0.3031 1.368,-5.6855 z m 11.045,0.2593 -1.462,5.8749 5.999,0.3458 1.565,-6.0774 z m 12.647,0.2969 -1.68,6.2945 6.9088,0.3982 1.8087,-6.5274 z m 14.6249,0.3434 -1.9522,6.7784 8.0435,0.4637 2.1134,-7.0495 z" />
      <g
         id="g1068"
         transform="translate(-60)">
        <path
           id="rect1441"
           style="fill:url(#linearGradient1447);fill-opacity:1;stroke:none;stroke-width:0.5;stroke-linecap:round;stroke-linejoin:round;stroke-miterlimit:4;stroke-dasharray:none"
           d="m -16.4951,38.516 c 0.6107,0.0233 1.1049,0.5079 1.1049,1.0865 0,0.5786 -0.4942,1.0208 -1.1049,0.9915 -0.6073,-0.029 -1.0936,-0.5133 -1.0936,-1.0859 0,-0.5727 0.4863,-1.0152 1.0936,-0.9921 z" />
        <path
           id="path1449"
           style="color:#000000;font-style:normal;font-variant:normal;font-weight:normal;font-stretch:normal;font-size:medium;line-height:normal;font-family:sans-serif;font-variant-ligatures:normal;font-variant-position:normal;font-variant-caps:normal;font-variant-numeric:normal;font-variant-alternates:normal;font-variant-east-asian:normal;font-feature-settings:normal;font-variation-settings:normal;text-indent:0;text-align:start;text-decoration:none;text-decoration-line:none;text-decoration-style:solid;text-decoration-color:#000000;letter-spacing:normal;word-spacing:normal;text-transform:none;writing-mode:lr-tb;direction:ltr;text-orientation:mixed;dominant-baseline:auto;baseline-shift:baseline;text-anchor:start;white-space:normal;shape-padding:0;shape-margin:0;inline-size:0;clip-rule:nonzero;display:inline;overflow:visible;visibility:visible;isolation:auto;mix-blend-mode:normal;color-interpolation:sRGB;color-interpolation-filters:linearRGB;solid-color:#000000;solid-opacity:1;vector-effect:none;fill:url(#linearGradient1464);fill-opacity:1;fill-rule:nonzero;stroke:none;stroke-linecap:butt;stroke-linejoin:miter;stroke-miterlimit:4;stroke-dasharray:none;stroke-dashoffset:0;stroke-opacity:1;color-rendering:auto;image-rendering:auto;shape-rendering:auto;text-rendering:auto;enable-background:accumulate;stop-color:#000000"
           d="m -15.9491,38.6923 -1.4785,1.3345 c 0.0945,0.1582 0.2261,0.289 0.3886,0.3865 l 1.4817,-1.3384 c -0.0961,-0.1573 -0.2287,-0.2865 -0.3918,-0.3826 z" />
      </g>
      <path
         id="path1028"
         style="font-style:normal;font-variant:normal;font-weight:bold;font-stretch:normal;font-size:10.6667px;line-height:1.25;font-family:'Roboto Condensed';-inkscape-font-specification:'Roboto Condensed, Bold';letter-spacing:-0.5px;word-spacing:0px;fill:url(#linearGradient1493);fill-opacity:1;stroke:none"
         d="m -85.6183,20.7345 c 0,0.1591 -0.0363,0.2848 -0.1063,0.3744 -0.0664,0.086 -0.145,0.131 -0.2358,0.135 -0.0768,0.0035 -0.1528,-0.0058 -0.2294,-0.0265 -0.0766,-0.0241 -0.2042,-0.0804 -0.3812,-0.1687 -0.1733,-0.0917 -0.2955,-0.1455 -0.3682,-0.1627 -0.0691,-0.0208 -0.1416,-0.0301 -0.2175,-0.0265 -0.2858,0.0135 -0.5256,0.1606 -0.721,0.4398 -0.195,0.2753 -0.2924,0.6022 -0.2924,0.9812 l 0.8215,0.0132 c 0,-0.1577 0.031,-0.2796 0.093,-0.3645 0.0621,-0.0884 0.1397,-0.1352 0.2329,-0.1392 0.076,-0.0032 0.1458,0.0041 0.208,0.0221 0.0658,0.0179 0.175,0.0724 0.3276,0.1624 0.1564,0.09 0.2764,0.1495 0.36,0.1771 0.0871,0.0276 0.1865,0.0391 0.2983,0.0346 0.301,-0.0122 0.5507,-0.1569 0.7477,-0.4319 0.2008,-0.2791 0.3014,-0.6116 0.3014,-0.997 z m -37.5537,3.3323 c -0.563,0.0214 -0.999,0.2671 -1.312,0.7348 -0.311,0.4631 -0.467,1.1127 -0.467,1.95 v 1.0253 c 0,0.8401 0.149,1.4861 0.449,1.9402 0.303,0.453 0.741,0.6801 1.315,0.6801 0.55,0 0.978,-0.1811 1.283,-0.5453 0.306,-0.3655 0.472,-0.9033 0.498,-1.6134 l -1.043,0.0134 c -0.015,0.4195 -0.073,0.7093 -0.176,0.8715 -0.103,0.1592 -0.291,0.2407 -0.562,0.2423 -0.274,0.0018 -0.468,-0.111 -0.581,-0.3379 -0.111,-0.2266 -0.167,-0.6451 -0.167,-1.2545 v -1.1579 c 0.007,-0.531 0.066,-0.9137 0.18,-1.1474 0.113,-0.2369 0.308,-0.3593 0.583,-0.3681 0.27,-0.0086 0.457,0.0684 0.557,0.2323 0.104,0.1611 0.16,0.4593 0.17,0.8954 l 1.046,-0.0261 c -0.041,-0.7088 -0.208,-1.2468 -0.502,-1.6154 -0.291,-0.3673 -0.715,-0.5405 -1.271,-0.5193 z m 3.881,-0.1476 c -0.6,0.0228 -1.066,0.2835 -1.401,0.7797 -0.333,0.4913 -0.499,1.1644 -0.499,2.0209 v 1.0663 c 0.004,0.825 0.174,1.4662 0.51,1.9249 0.337,0.4577 0.801,0.6862 1.397,0.6862 0.603,0 1.076,-0.2354 1.418,-0.7074 0.346,-0.474 0.52,-1.139 0.52,-1.9945 v -1.0907 c -0.005,-0.8729 -0.183,-1.5443 -0.531,-2.0138 -0.347,-0.4705 -0.818,-0.6943 -1.414,-0.6716 z m 8.678,-0.33 c -0.541,0.0205 -0.984,0.2069 -1.332,0.5572 -0.345,0.3457 -0.517,0.7932 -0.517,1.3457 0,0.4565 0.126,0.8499 0.381,1.1811 0.255,0.3292 0.675,0.6153 1.262,0.8566 0.323,0.1436 0.546,0.284 0.668,0.4222 0.125,0.1353 0.188,0.3379 0.188,0.609 0,0.4963 -0.21,0.7463 -0.626,0.7489 -0.299,0.0018 -0.513,-0.0832 -0.644,-0.2547 -0.131,-0.1712 -0.197,-0.447 -0.197,-0.8275 l -1.175,0.0143 c 0,0.441 0.087,0.8229 0.259,1.1461 0.174,0.3239 0.415,0.5735 0.724,0.7477 0.31,0.1749 0.654,0.2614 1.033,0.2614 0.563,0 1.011,-0.1627 1.342,-0.4902 0.332,-0.3286 0.497,-0.7846 0.497,-1.3671 0,-0.5303 -0.132,-0.9651 -0.399,-1.3036 -0.262,-0.3375 -0.683,-0.6173 -1.261,-0.839 -0.329,-0.1503 -0.558,-0.297 -0.687,-0.4391 -0.129,-0.145 -0.193,-0.307 -0.193,-0.4883 0,-0.2328 0.058,-0.42 0.173,-0.5596 0.115,-0.1428 0.277,-0.2165 0.484,-0.2231 0.221,-0.007 0.39,0.0697 0.506,0.2303 0.12,0.1577 0.18,0.3914 0.18,0.702 l 1.202,-0.032 c 0,-0.4016 -0.079,-0.7578 -0.235,-1.0684 -0.154,-0.3101 -0.374,-0.5455 -0.66,-0.7061 -0.286,-0.1631 -0.611,-0.2376 -0.973,-0.2238 z M -91.9654,22.88 c -0.7923,0.0302 -1.4067,0.3252 -1.8464,0.8823 -0.4378,0.5513 -0.6547,1.3222 -0.6547,2.3145 v 1.215 c 0,0.9956 0.2095,1.7609 0.6311,2.2989 0.3274,0.4121 0.7692,0.6633 1.3205,0.7595 l -0.1176,0.6329 c 0.1994,0.0173 0.3395,0.0528 0.4215,0.1066 0.0852,0.0539 0.1273,0.1491 0.1273,0.283 0,0.2745 -0.1185,0.4097 -0.3576,0.4081 l 0.0294,0.8387 c 0.4822,0.0055 0.8532,-0.0984 1.1143,-0.3107 0.2618,-0.2129 0.3936,-0.5048 0.3936,-0.8753 0,-0.2392 -0.0525,-0.4341 -0.1587,-0.5858 -0.1028,-0.1483 -0.2514,-0.2443 -0.4431,-0.2881 l 0.0297,-0.2003 c 0.535,-0.0769 0.9708,-0.2779 1.3018,-0.6106 0.4327,-0.435 0.6695,-1.0751 0.7066,-1.9201 l -1.4755,0.0189 c -0.02,0.4986 -0.1042,0.8432 -0.2501,1.0362 -0.1456,0.1893 -0.4087,0.2863 -0.7906,0.2886 -0.3871,0.0024 -0.6613,-0.1311 -0.8211,-0.4002 -0.1563,-0.2687 -0.2344,-0.765 -0.2344,-1.488 v -1.3738 c 0.0098,-0.63 0.095,-1.0846 0.2546,-1.3627 0.1598,-0.2819 0.4322,-0.4285 0.8194,-0.4408 0.382,-0.0121 0.6447,0.078 0.787,0.272 0.1459,0.1908 0.2256,0.5448 0.2389,1.063 l 1.4812,-0.0369 c -0.0572,-0.8431 -0.2945,-1.482 -0.7104,-1.9181 -0.4108,-0.4345 -1.0113,-0.6366 -1.7967,-0.6068 z m 11.5503,-0.4392 c -0.9056,0.0344 -1.6092,0.3592 -2.112,0.9708 -0.5004,0.6051 -0.7483,1.4312 -0.7483,2.4804 v 1.3063 c 0.0071,1.0107 0.2605,1.7959 0.7645,2.3576 0.5065,0.561 1.2077,0.8412 2.1061,0.8412 0.9099,0 1.6256,-0.2895 2.1431,-0.8705 0.5237,-0.584 0.7873,-1.4031 0.7873,-2.4567 v -1.343 c -0.0076,-1.0749 -0.2768,-1.9001 -0.8043,-2.4747 -0.5248,-0.5755 -1.2377,-0.8456 -2.1364,-0.8114 z m -53.3259,2.1067 v 5.7709 l 2.608,-0.0013 v -0.9837 l -1.701,0.0114 v -1.5382 l 1.435,-0.0237 v -0.9534 l -1.435,0.0324 v -1.3708 l 1.694,-0.053 v -0.9882 z m 2.836,-0.1064 v 5.8759 l 0.941,-5e-4 v -1.5998 l -0.087,-2.4607 0.94,4.0601 0.653,-3e-4 0.96,-4.1261 -0.09,2.502 v 1.6236 l 0.984,-5e-4 v -6.0351 l -1.278,0.0479 -0.9,4.3398 -0.892,-4.2725 z m 13.991,-0.525 v 6.3938 l 1.114,-6e-4 v -4.221 l 1.654,4.2202 1.15,-6e-4 V 23.769 l -1.145,0.043 v 4.2663 l -1.659,-4.204 z m 8.31,-0.3118 v 1.1287 l 1.476,-0.0462 v 5.6181 l 1.247,-6e-4 v -5.6565 l 1.547,-0.0484 V 23.444 Z m 4.592,-0.1724 v 6.8715 l 1.287,-7e-4 v -2.5285 l 0.646,-0.009 0.977,2.5367 1.4284,-7e-4 v -0.067 l -1.1544,-2.861 c 0.635,-0.3826 0.9532,-1.04 0.9532,-1.9727 0,-0.6786 -0.1822,-1.1958 -0.5472,-1.5495 -0.361,-0.3556 -0.872,-0.5211 -1.529,-0.4964 z m 4.5744,-0.1716 v 4.8413 c 0,0.7446 0.1873,1.312 0.5631,1.7045 0.3804,0.394 0.9327,0.591 1.6588,0.591 0.7191,0 1.274,-0.1969 1.663,-0.592 0.3905,-0.4001 0.5908,-0.9752 0.5972,-1.7242 v -4.9888 l -1.396,0.0524 v 4.9493 c -0.0032,0.3932 -0.0666,0.6764 -0.189,0.8509 -0.1223,0.171 -0.3476,0.258 -0.6752,0.2601 -0.3265,0.002 -0.5518,-0.084 -0.6756,-0.2554 -0.1237,-0.1712 -0.1843,-0.458 -0.1843,-0.8606 v -4.8796 z m 12.2441,-0.4595 -2.3254,7.4952 1.5834,-8e-4 0.4012,-1.5319 2.0895,-0.0169 0.4112,1.5473 1.6716,-8e-4 -2.4294,-7.5447 z m -32.0975,2.1837 c 0.289,-0.0092 0.502,0.123 0.64,0.397 0.138,0.2744 0.206,0.697 0.206,1.2685 v 1.1017 c -0.002,0.5396 -0.072,0.9387 -0.21,1.198 -0.138,0.256 -0.347,0.3852 -0.629,0.387 -0.29,0.0018 -0.503,-0.1264 -0.641,-0.3843 -0.138,-0.2604 -0.207,-0.6647 -0.207,-1.2134 v -1.1167 c 0.005,-0.543 0.075,-0.9481 0.211,-1.2165 0.136,-0.2717 0.345,-0.4122 0.63,-0.4213 z m 38.8759,-1.2353 c 0.4354,-0.0138 0.7576,0.1468 0.9655,0.4823 0.2084,0.3362 0.312,0.8553 0.312,1.5581 v 1.3546 c -0.0038,0.6636 -0.1099,1.1545 -0.3182,1.4736 -0.2079,0.3149 -0.5246,0.4742 -0.949,0.4768 -0.4373,0.0027 -0.7588,-0.1543 -0.967,-0.4705 -0.2078,-0.3191 -0.3115,-0.815 -0.3115,-1.4882 V 25.766 c 0.0072,-0.6662 0.1114,-1.1637 0.3156,-1.4941 0.2045,-0.3346 0.5226,-0.509 0.9526,-0.5227 z m -22.3099,0.7998 0.761,-0.0238 c 0.508,-0.0159 0.763,0.3258 0.763,1.0252 0,0.313 -0.066,0.564 -0.197,0.7552 -0.131,0.1878 -0.327,0.2848 -0.588,0.2901 l -0.739,0.0149 z m 16.2281,0.2611 0.7094,2.6701 -1.4157,0.0202 z" />
    </g>
  </g>
  <g
     inkscape:groupmode="layer"
     id="layer2"
     inkscape:label="glass"
     style="display:inline"
     sodipodi:insensitive="true">
    <path
       id="rect988"
       style="opacity:0.7;fill:url(#linearGradient993);fill-opacity:1;stroke:none;stroke-width:2;stroke-linecap:round;stroke-linejoin:round;stroke-miterlimit:4;stroke-dasharray:none;stroke-dashoffset:0;stroke-opacity:1;filter:url(#filter1433)"
       d="M 9,1 C 4.568,1 1,4.568 1,9 v 32 c 0,4.432 3.568,8 8,8 h 94 c 4.432,0 8,-3.568 8,-8 V 9 c 0,-4.432 -3.568,-8 -8,-8 z m 9,7 h 76 c 4.432,0 8,3.568 8,8 v 18 c 0,4.432 -3.568,8 -8,8 H 18 c -4.432,0 -8,-3.568 -8,-8 V 16 c 0,-4.432 3.568,-8 8,-8 z" />
    <rect
       style="opacity:0.1;fill:url(#linearGradient1556);fill-opacity:1;stroke:none;stroke-width:2;stroke-linecap:round;stroke-linejoin:round;stroke-miterlimit:4;stroke-dasharray:none;stroke-dashoffset:0;stroke-opacity:1"
       id="rect976"
       width="106"
       height="44"
       x="-5"
       y="2.8664308"
       rx="6.5"
       transform="translate(8)" />
    <path
       style="opacity:0.1;fill:url(#linearGradient1566);fill-opacity:1;stroke:none;stroke-width:1px;stroke-linecap:butt;stroke-linejoin:miter;stroke-opacity:1"
       d="M 56,3 22,47.78461 H 41 L 75,3 Z"
       id="path978"
       sodipodi:nodetypes="ccccc" />
    <path
       style="opacity:0.1;fill:url(#linearGradient2026);fill-opacity:1;stroke:none;stroke-width:1px;stroke-linecap:butt;stroke-linejoin:miter;stroke-opacity:1"
       d="m 3,3 v 34 8.150221 L 35,3 Z"
       id="path2024"
       sodipodi:nodetypes="ccccc" />
    <path
       style="opacity:0.1;fill:url(#linearGradient1562);fill-opacity:1;stroke:none;stroke-width:1px;stroke-linecap:butt;stroke-linejoin:miter;stroke-opacity:1"
       d="M 94,3 60,47.78461 h 5 L 99,3 Z"
       id="path982"
       sodipodi:nodetypes="ccccc" />
    <path
       style="color:#000000;font-style:normal;font-variant:normal;font-weight:normal;font-stretch:normal;font-size:medium;line-height:normal;font-family:sans-serif;font-variant-ligatures:normal;font-variant-position:normal;font-variant-caps:normal;font-variant-numeric:normal;font-variant-alternates:normal;font-variant-east-asian:normal;font-feature-settings:normal;font-variation-settings:normal;text-indent:0;text-align:start;text-decoration:none;text-decoration-line:none;text-decoration-style:solid;text-decoration-color:#000000;letter-spacing:normal;word-spacing:normal;text-transform:none;writing-mode:lr-tb;direction:ltr;text-orientation:mixed;dominant-baseline:auto;baseline-shift:baseline;text-anchor:start;white-space:normal;shape-padding:0;shape-margin:0;inline-size:0;clip-rule:nonzero;display:inline;overflow:visible;visibility:visible;opacity:1;isolation:auto;mix-blend-mode:normal;color-interpolation:sRGB;color-interpolation-filters:linearRGB;solid-color:#000000;solid-opacity:1;vector-effect:none;fill:url(#linearGradient1526);fill-opacity:1;fill-rule:nonzero;stroke:none;stroke-linecap:round;stroke-linejoin:round;stroke-miterlimit:4;stroke-dasharray:none;stroke-dashoffset:0;stroke-opacity:1;color-rendering:auto;image-rendering:auto;shape-rendering:auto;text-rendering:auto;enable-background:accumulate;stop-color:#000000;stop-opacity:1"
       d="m 1,0 c -4.9687028,0 -9,4.0312972 -9,9 v 32 c 0,4.968703 4.0312972,9 9,9 h 94 c 4.968703,0 9,-4.031297 9,-9 V 9 C 104,4.0312972 99.968703,0 95,0 Z m 0,2 h 94 c 3.895297,0 7,3.1047028 7,7 v 32 c 0,3.895297 -3.104703,7 -7,7 H 1 c -3.8952972,0 -7,-3.104703 -7,-7 V 9 C -6,5.1047028 -2.8952972,2 1,2 Z"
       id="rect972"
       transform="translate(8)" />
    <path
       style="color:#000000;font-style:normal;font-variant:normal;font-weight:normal;font-stretch:normal;font-size:medium;line-height:normal;font-family:sans-serif;font-variant-ligatures:normal;font-variant-position:normal;font-variant-caps:normal;font-variant-numeric:normal;font-variant-alternates:normal;font-variant-east-asian:normal;font-feature-settings:normal;font-variation-settings:normal;text-indent:0;text-align:start;text-decoration:none;text-decoration-line:none;text-decoration-style:solid;text-decoration-color:#000000;letter-spacing:normal;word-spacing:normal;text-transform:none;writing-mode:lr-tb;direction:ltr;text-orientation:mixed;dominant-baseline:auto;baseline-shift:baseline;text-anchor:start;white-space:normal;shape-padding:0;shape-margin:0;inline-size:0;clip-rule:nonzero;display:inline;overflow:visible;visibility:visible;opacity:1;isolation:auto;mix-blend-mode:normal;color-interpolation:sRGB;color-interpolation-filters:linearRGB;solid-color:#000000;solid-opacity:1;vector-effect:none;fill:url(#linearGradient1537);fill-opacity:1;fill-rule:nonzero;stroke:none;stroke-linecap:round;stroke-linejoin:round;stroke-miterlimit:4;stroke-dasharray:none;stroke-dashoffset:0;stroke-opacity:1;color-rendering:auto;image-rendering:auto;shape-rendering:auto;text-rendering:auto;enable-background:accumulate;stop-color:#000000;stop-opacity:1"
       d="M 1.5,1 C -3.1917028,1 -7,4.8082972 -7,9.5 v 31 c 0,4.691703 3.8082972,8.5 8.5,8.5 h 93 c 4.691703,0 8.5,-3.808297 8.5,-8.5 V 9.5 C 103,4.8082972 99.191703,1 94.5,1 Z m 0,2 h 93 c 3.618297,0 6.5,2.8817028 6.5,6.5 v 31 c 0,3.618297 -2.881703,6.5 -6.5,6.5 H 1.5 C -2.1182972,47 -5,44.118297 -5,40.5 V 9.5 C -5,5.8817028 -2.1182972,3 1.5,3 Z"
       id="rect974"
       transform="translate(8)" />
    <path
       id="rect1345"
       style="color:#000000;font-style:normal;font-variant:normal;font-weight:normal;font-stretch:normal;font-size:medium;line-height:normal;font-family:sans-serif;font-variant-ligatures:normal;font-variant-position:normal;font-variant-caps:normal;font-variant-numeric:normal;font-variant-alternates:normal;font-variant-east-asian:normal;font-feature-settings:normal;font-variation-settings:normal;text-indent:0;text-align:start;text-decoration:none;text-decoration-line:none;text-decoration-style:solid;text-decoration-color:#000000;letter-spacing:normal;word-spacing:normal;text-transform:none;writing-mode:lr-tb;direction:ltr;text-orientation:mixed;dominant-baseline:auto;baseline-shift:baseline;text-anchor:start;white-space:normal;shape-padding:0;shape-margin:0;inline-size:0;clip-rule:nonzero;display:inline;overflow:visible;visibility:visible;opacity:1;isolation:auto;mix-blend-mode:normal;color-interpolation:sRGB;color-interpolation-filters:linearRGB;solid-color:#000000;solid-opacity:1;vector-effect:none;fill:url(#linearGradient1356);fill-opacity:1;fill-rule:nonzero;stroke:none;stroke-linecap:round;stroke-linejoin:round;stroke-miterlimit:4;stroke-dasharray:none;stroke-dashoffset:0;stroke-opacity:1;color-rendering:auto;image-rendering:auto;shape-rendering:auto;text-rendering:auto;enable-background:accumulate;stop-color:#000000;stop-opacity:1"
       d="m 111,30 -2,-1.5 v 12 c 0,3.618297 -2.8817,6.5 -6.5,6.5 H 9.5 C 5.8817028,47 3,44.118297 3,40.5 V 29 l -2,2.5 v 9 C 1,45.191703 4.8082972,49 9.5,49 h 93 c 4.6917,0 8.5,-3.808297 8.5,-8.5 z"
       sodipodi:nodetypes="ccssssccssssc" />
    <path
       style="color:#000000;font-style:normal;font-variant:normal;font-weight:normal;font-stretch:normal;font-size:medium;line-height:normal;font-family:sans-serif;font-variant-ligatures:normal;font-variant-position:normal;font-variant-caps:normal;font-variant-numeric:normal;font-variant-alternates:normal;font-variant-east-asian:normal;font-feature-settings:normal;font-variation-settings:normal;text-indent:0;text-align:start;text-decoration:none;text-decoration-line:none;text-decoration-style:solid;text-decoration-color:#000000;letter-spacing:normal;word-spacing:normal;text-transform:none;writing-mode:lr-tb;direction:ltr;text-orientation:mixed;dominant-baseline:auto;baseline-shift:baseline;text-anchor:start;white-space:normal;shape-padding:0;shape-margin:0;inline-size:0;clip-rule:nonzero;display:inline;overflow:visible;visibility:visible;opacity:1;isolation:auto;mix-blend-mode:normal;color-interpolation:sRGB;color-interpolation-filters:linearRGB;solid-color:#000000;solid-opacity:1;vector-effect:none;fill:url(#linearGradient1315);fill-opacity:1;fill-rule:nonzero;stroke:none;stroke-linecap:round;stroke-linejoin:round;stroke-miterlimit:4;stroke-dasharray:none;stroke-dashoffset:0;stroke-opacity:1;color-rendering:auto;image-rendering:auto;shape-rendering:auto;text-rendering:auto;enable-background:accumulate;stop-color:#000000;stop-opacity:1"
       d="m 1.5,1.8671875 c -4.1377028,0 -7.5,3.3622972 -7.5,7.5 V 40.367188 c 0,4.137702 3.3622972,7.5 7.5,7.5 h 93 c 4.137703,0 7.5,-3.362298 7.5,-7.5 V 9.3671875 c 0,-4.1377028 -3.362297,-7.5 -7.5,-7.5 z m 0,2 h 93 c 3.064297,0 5.5,2.4357028 5.5,5.5 V 40.367188 c 0,3.064297 -2.435703,5.5 -5.5,5.5 h -93 c -3.0642972,0 -5.5,-2.435703 -5.5,-5.5 V 9.3671875 c 0,-3.0642972 2.4357028,-5.5 5.5,-5.5 z"
       id="rect1545"
       transform="translate(8)" />
    <path
       id="rect1235"
       style="color:#000000;font-style:normal;font-variant:normal;font-weight:normal;font-stretch:normal;font-size:medium;line-height:normal;font-family:sans-serif;font-variant-ligatures:normal;font-variant-position:normal;font-variant-caps:normal;font-variant-numeric:normal;font-variant-alternates:normal;font-variant-east-asian:normal;font-feature-settings:normal;font-variation-settings:normal;text-indent:0;text-align:start;text-decoration:none;text-decoration-line:none;text-decoration-style:solid;text-decoration-color:#000000;letter-spacing:normal;word-spacing:normal;text-transform:none;writing-mode:lr-tb;direction:ltr;text-orientation:mixed;dominant-baseline:auto;baseline-shift:baseline;text-anchor:start;white-space:normal;shape-padding:0;shape-margin:0;inline-size:0;clip-rule:nonzero;display:inline;overflow:visible;visibility:visible;opacity:1;isolation:auto;mix-blend-mode:normal;color-interpolation:sRGB;color-interpolation-filters:linearRGB;solid-color:#000000;solid-opacity:1;vector-effect:none;fill:url(#linearGradient1334);fill-opacity:1;fill-rule:nonzero;stroke:none;stroke-linecap:round;stroke-linejoin:round;stroke-miterlimit:4;stroke-dasharray:none;stroke-dashoffset:0;stroke-opacity:1;color-rendering:auto;image-rendering:auto;shape-rendering:auto;text-rendering:auto;enable-background:accumulate;stop-color:#000000;stop-opacity:1"
       d="m 3,13 v 27.5 c 0,1.8005 0.7255156,3.424734 1.9003906,4.599609 L 5.6015625,44.398438 C 4.6095996,43.406475 4,42.032148 4,40.5 V 14 Z m 106,0 -1,1 v 26.5 c 0,1.532148 -0.6096,2.906475 -1.60156,3.898438 l 0.70117,0.701171 C 108.27449,43.924734 109,42.3005 109,40.5 Z" />
    <path
       id="path1343"
       style="fill:url(#linearGradient1515);fill-opacity:1;stroke:none;stroke-width:1px;stroke-linecap:butt;stroke-linejoin:miter;stroke-opacity:1"
       d="M 1.5,47 C -2.101,47 -5,44.101 -5,40.5 V 37 l 1,-1 v 4.5 c 0,3.064297 2.4357028,5.5 5.5,5.5 h 93 c 3.0643,0 5.5,-2.435703 5.5,-5.5 V 36 l 1,1 v 3.5 c 0,3.601 -2.899,6.5 -6.5,6.5 z"
       sodipodi:nodetypes="ssccssssccsss"
       transform="translate(8)" />
    <path
       id="path1237"
       style="fill:url(#linearGradient1509);fill-opacity:1;stroke:none;stroke-width:1px;stroke-linecap:butt;stroke-linejoin:miter;stroke-opacity:1"
       d="M 9.5,3 C 5.899,3 3,5.899 3,9.5 V 13 l 1,1 V 9.5 C 4,6.4357028 6.4357028,4 9.5,4 h 93 c 3.0643,0 5.5,2.4357028 5.5,5.5 V 14 l 1,-1 V 9.5 C 109,5.899 106.101,3 102.5,3 Z"
       sodipodi:nodetypes="ssccssssccsss" />
  </g>
</svg>
