<svg width="122" height="122" viewBox="0 0 122 122" fill="none" xmlns="http://www.w3.org/2000/svg">
<g clip-path="url(#clip0)">
<path d="M122 0H0V122H122V0Z" fill="#2B2B2B"/>
<path d="M61 20.3334C37.2519 20.3334 17.9424 39.6428 17.9424 63.3909C17.9424 87.139 37.2519 106.449 61 106.449C84.7481 106.449 104.058 87.139 104.058 63.3909C104.058 39.6429 84.7481 20.3334 61 20.3334ZM61 25.7156C69.8037 25.7156 77.8718 28.747 84.279 33.7889H37.721C44.1282 28.747 52.1963 25.7156 61 25.7156ZM38.441 39.1711H83.559L61 84.2837L38.441 39.1711ZM31.3979 40.1119V86.67C26.356 80.2628 23.3246 72.1946 23.3246 63.3909C23.3246 54.5872 26.356 46.5191 31.3979 40.1119ZM90.6021 40.1119C95.6439 46.5191 98.6753 54.5872 98.6753 63.3909C98.6753 72.1946 95.6439 80.2628 90.6021 86.67V40.1119ZM36.7801 47.8803L56.648 87.6108H36.7801V47.8803ZM85.2199 47.8803V87.6108H65.352L85.2199 47.8803ZM37.721 92.993H84.279C77.8718 98.0349 69.8037 101.066 61 101.066C52.1963 101.066 44.1282 98.0349 37.721 92.993Z" fill="#262626"/>
<path d="M61 20.3334C37.8934 20.3334 19.1056 39.1212 19.1056 62.2278C19.1056 85.3344 37.8934 104.122 61 104.122C84.1066 104.122 102.894 85.3344 102.894 62.2278C102.894 39.1212 84.1066 20.3334 61 20.3334ZM61 25.5702C69.5659 25.5702 77.416 28.5197 83.6502 33.4254H38.3498C44.584 28.5197 52.4341 25.5702 61 25.5702ZM39.0504 38.6622H82.9496L61 82.5562L39.0504 38.6622ZM32.1976 39.5776V84.878C27.2919 78.6438 24.3424 70.7937 24.3424 62.2278C24.3424 53.6619 27.2919 45.8118 32.1976 39.5776ZM89.8024 39.5776C94.7081 45.8118 97.6576 53.6619 97.6576 62.2278C97.6576 70.7937 94.7081 78.6438 89.8024 84.878V39.5776ZM37.4344 47.1362L56.7656 85.7934H37.4344V47.1362ZM84.5656 47.1362V85.7934H65.2345L84.5656 47.1362ZM38.3498 91.0302H83.6502C77.416 95.9359 69.5659 98.8854 61 98.8854C52.4341 98.8854 44.584 95.9359 38.3498 91.0302Z" fill="#212121"/>
<path d="M61 99.1248C82.0558 99.1248 99.1249 82.0557 99.1249 60.9999C99.1249 39.9441 82.0558 22.875 61 22.875C39.9442 22.875 22.8751 39.9441 22.8751 60.9999C22.8751 82.0557 39.9442 99.1248 61 99.1248Z" stroke="white" stroke-width="4"/>
<path d="M86.4167 35.5833H35.5834V86.4166H86.4167V35.5833Z" stroke="white" stroke-width="4"/>
<path d="M35.5833 35.5834L61 86.4167L86.4167 35.5834" stroke="white" stroke-width="4" stroke-linejoin="bevel"/>
</g>
<defs>
<clipPath id="clip0">
<rect width="122" height="122" fill="white"/>
</clipPath>
</defs>
</svg>
