<svg width="122" height="122" viewBox="0 0 122 122" fill="none" xmlns="http://www.w3.org/2000/svg">
<g clip-path="url(#clip0)">
<path d="M122 0H0V122H122V0Z" fill="#F9F9F9"/>
<path d="M18.0717 20.3334V21.6749V106.19H103.928V20.3334H18.0717ZM20.7547 23.0164H101.245V103.507H20.7547V23.0164ZM28.8038 52.5296V65.1429C28.8038 68.053 29.4003 70.2615 30.5959 71.7667C31.7915 73.2519 33.3777 73.9938 35.3489 73.9938C37.3361 73.9938 38.932 73.2519 40.1437 71.7667C41.3555 70.2615 41.9621 68.053 41.9621 65.1429V52.5296H39.2005V65.1429C39.2005 67.0295 38.8624 68.4329 38.1839 69.3561C37.5214 70.2793 36.5916 70.7448 35.396 70.7448C34.1843 70.7448 33.2396 70.2793 32.561 69.3561C31.8986 68.4329 31.5654 67.0295 31.5654 65.1429V52.5296H28.8038ZM43.901 52.5296L49.3299 62.9473L44.0215 73.7842H47.1971L50.8601 65.9238L54.9527 73.7842H58.2489L52.7466 63.1883L58.0288 52.5296H54.8584L51.2217 60.2381L47.1971 52.5296H43.901ZM60.3083 52.5296V73.7842H63.0699V65.536H66.125C68.0476 65.536 69.5194 64.9611 70.5373 63.8172C71.5552 62.6531 72.0622 61.0711 72.0622 59.0642C72.0622 57.0372 71.56 55.4387 70.5583 54.2746C69.5727 53.1107 68.0961 52.5296 66.125 52.5296H60.3083ZM75.9505 52.5296C75.4173 52.5296 74.9898 52.7194 74.6666 53.1008C74.3435 53.4822 74.1793 53.9651 74.1793 54.5471C74.1793 55.1291 74.3435 55.6007 74.6666 55.962C74.9898 56.3233 75.4173 56.5017 75.9505 56.5017C76.4837 56.5017 76.9112 56.3233 77.2344 55.962C77.5737 55.6007 77.7427 55.1291 77.7427 54.5471C77.7427 53.9651 77.5737 53.4822 77.2344 53.1008C76.9112 52.7194 76.4837 52.5296 75.9505 52.5296ZM63.0699 55.3594H65.8368C67.0324 55.3594 67.8923 55.6814 68.4255 56.3236C68.9748 56.9457 69.2534 57.8601 69.2534 59.0642C69.2534 61.5126 68.1149 62.7324 65.8368 62.7324H63.0699V55.3594ZM88.0608 56.9262C86.9621 56.9262 85.9926 57.2657 85.1524 57.9481C84.3123 58.6304 83.7105 59.5964 83.355 60.8407V57.1935H80.5934V73.7842H83.355V64.9648C83.355 63.2789 83.6883 62.0024 84.3507 61.1394C85.0131 60.2564 85.8931 59.8136 86.9918 59.8136C88.0581 59.8136 88.8984 60.2275 89.5123 61.0503C90.1263 61.8531 90.4346 62.9976 90.4346 64.4827V73.7842H93.1963V64.1211C93.1963 61.8132 92.729 60.0361 91.7919 58.7917C90.8548 57.5475 89.6118 56.9262 88.0608 56.9262ZM74.4885 57.1935V73.7842H77.2501V57.1935H74.4885Z" fill="#EBEBEB"/>
<path d="M19.2994 20.3334V21.6365V103.735H102.701V20.3334H19.2994ZM21.9057 22.9397H100.094V101.128H21.9057V22.9397ZM29.7246 51.6088V63.8614C29.7246 66.6882 30.3041 68.8335 31.4655 70.2957C32.6269 71.7384 34.1677 72.4591 36.0825 72.4591C38.0129 72.4591 39.5631 71.7384 40.7402 70.2957C41.9173 68.8335 42.5066 66.6882 42.5066 63.8614V51.6088H39.8239V63.8614C39.8239 65.694 39.4956 67.0573 38.8364 67.9541C38.1929 68.8508 37.2897 69.303 36.1283 69.303C34.9512 69.303 34.0336 68.8508 33.3744 67.9541C32.7309 67.0573 32.4072 65.694 32.4072 63.8614V51.6088H29.7246ZM44.39 51.6088L49.6637 61.7285L44.5071 72.2555H47.5919L51.1501 64.6199L55.1257 72.2555H58.3275L52.9826 61.9627L58.1138 51.6088H55.0341L51.5013 59.0968L47.5919 51.6088H44.39ZM60.3281 51.6088V72.2555H63.0107V64.2432H65.9784C67.8461 64.2432 69.2758 63.6848 70.2645 62.5735C71.2533 61.4427 71.7458 59.906 71.7458 57.9565C71.7458 55.9875 71.258 54.4347 70.2849 53.3039C69.3275 52.1732 67.8932 51.6088 65.9784 51.6088H60.3281ZM75.5229 51.6088C75.005 51.6088 74.5897 51.7932 74.2758 52.1637C73.9619 52.5341 73.8024 53.0032 73.8024 53.5686C73.8024 54.134 73.9619 54.5921 74.2758 54.943C74.5897 55.294 75.005 55.4673 75.5229 55.4673C76.0408 55.4673 76.4562 55.294 76.7701 54.943C77.0997 54.5921 77.2638 54.134 77.2638 53.5686C77.2638 53.0032 77.0996 52.5341 76.7701 52.1637C76.4562 51.7932 76.0408 51.6088 75.5229 51.6088ZM63.0107 54.3576H65.6984C66.8598 54.3576 67.6952 54.6704 68.2131 55.2942C68.7467 55.8986 69.0174 56.7868 69.0174 57.9565C69.0174 60.3349 67.9114 61.5198 65.6984 61.5198H63.0107V54.3576ZM87.2868 55.8796C86.2196 55.8796 85.2778 56.2094 84.4617 56.8723C83.6455 57.5351 83.0609 58.4735 82.7157 59.6822V56.1393H80.033V72.2555H82.7157V63.6883C82.7157 62.0507 83.0394 60.8107 83.6828 59.9723C84.3263 59.1146 85.1812 58.6845 86.2484 58.6845C87.2842 58.6845 88.1005 59.0865 88.6969 59.8858C89.2933 60.6657 89.5928 61.7774 89.5928 63.22V72.2555H92.2754V62.8688C92.2754 60.6268 91.8215 58.9006 90.9112 57.6918C90.0009 56.4832 88.7935 55.8796 87.2868 55.8796ZM74.1027 56.1393V72.2555H76.7853V56.1393H74.1027Z" fill="#DCDCDC"/>
<path d="M100.396 21.6044H21.6042V100.396H100.396V21.6044Z" stroke="black" stroke-width="2"/>
<path d="M33.1172 50.8334V62.7824C33.1172 64.5695 33.431 65.9003 34.0585 66.7749C34.7014 67.6494 35.5967 68.0867 36.7446 68.0867C37.8773 68.0867 38.7573 67.6494 39.3848 66.7749C40.0277 65.9003 40.3491 64.5695 40.3491 62.7824V50.8334H42.9663V62.7824C42.9663 65.5391 42.3924 67.6304 41.2445 69.0563C40.0966 70.4632 38.5813 71.1667 36.6987 71.1667C34.8315 71.1667 33.3315 70.4632 32.1989 69.0563C31.0663 67.6304 30.5 65.5391 30.5 62.7824V50.8334H33.1172Z" fill="black"/>
<path d="M55.2719 70.967L51.392 63.5238L47.9253 70.967H44.9178L49.9456 60.7004L44.803 50.8334H47.9253L51.7364 58.1338L55.1801 50.8334H58.1876L53.1827 60.9286L58.3943 70.967H55.2719Z" fill="black"/>
<path d="M62.9629 63.1532V70.967H60.3457V50.8334H65.8557C67.7229 50.8334 69.1234 51.3847 70.057 52.4873C71.006 53.59 71.4804 55.1015 71.4804 57.0217C71.4804 58.9229 70.9983 60.4248 70.0341 61.5275C69.0698 62.6112 67.677 63.1532 65.8557 63.1532H62.9629ZM65.5802 60.5009C67.7382 60.5009 68.8173 59.3411 68.8173 57.0217C68.8173 55.881 68.5571 55.0159 68.0367 54.4265C67.5316 53.8182 66.7128 53.514 65.5802 53.514H62.9629V60.5009H65.5802Z" fill="black"/>
<path d="M73.4856 52.7441C73.4856 52.1927 73.6387 51.7365 73.9448 51.3753C74.2509 51.014 74.6565 50.8334 75.1616 50.8334C75.6667 50.8334 76.0723 51.014 76.3784 51.3753C76.6998 51.7365 76.8605 52.1927 76.8605 52.7441C76.8605 53.2955 76.6998 53.7422 76.3784 54.0845C76.0723 54.4267 75.6667 54.5977 75.1616 54.5977C74.6565 54.5977 74.2509 54.4267 73.9448 54.0845C73.6387 53.7422 73.4856 53.2955 73.4856 52.7441ZM76.3935 55.2536V70.967H73.7762V55.2536H76.3935Z" fill="black"/>
<path d="M86.6329 54.9969C88.1022 54.9969 89.2807 55.5864 90.1684 56.7651C91.0562 57.9438 91.5 59.6264 91.5 61.8127V70.967H88.8828V62.1549C88.8828 60.748 88.592 59.6643 88.0104 58.9038C87.4288 58.1243 86.6329 57.7346 85.6227 57.7346C84.5819 57.7346 83.7478 58.1528 83.1203 58.9893C82.4927 59.8069 82.179 61.0142 82.179 62.6112V70.967H79.5617V55.2536H82.179V58.7042C82.5157 57.5255 83.082 56.613 83.8779 55.9665C84.6738 55.3201 85.5921 54.9969 86.6329 54.9969Z" fill="black"/>
</g>
<defs>
<clipPath id="clip0">
<rect width="122" height="122" fill="white"/>
</clipPath>
</defs>
</svg>
