<svg width="1366" height="768" viewBox="0 0 1366 768" fill="none" xmlns="http://www.w3.org/2000/svg">
<g clip-path="url(#clip0)">
<g opacity="0.1">
<g opacity="0.1">
<path opacity="0.8" d="M311.44 533.156C312.949 533.156 314.172 531.933 314.172 530.425C314.172 528.917 312.949 527.694 311.44 527.694C309.931 527.694 308.708 528.917 308.708 530.425C308.708 531.933 309.931 533.156 311.44 533.156Z" fill="url(#paint0_linear)"/>
<path opacity="0.8" d="M322.368 533.156C323.877 533.156 325.1 531.933 325.1 530.425C325.1 528.917 323.877 527.694 322.368 527.694C320.859 527.694 319.636 528.917 319.636 530.425C319.636 531.933 320.859 533.156 322.368 533.156Z" fill="url(#paint1_linear)"/>
<path opacity="0.8" d="M333.296 533.156C334.805 533.156 336.028 531.933 336.028 530.425C336.028 528.917 334.805 527.694 333.296 527.694C331.787 527.694 330.564 528.917 330.564 530.425C330.564 531.933 331.787 533.156 333.296 533.156Z" fill="url(#paint2_linear)"/>
<path opacity="0.8" d="M344.224 533.156C345.733 533.156 346.956 531.933 346.956 530.425C346.956 528.917 345.733 527.694 344.224 527.694C342.715 527.694 341.492 528.917 341.492 530.425C341.492 531.933 342.715 533.156 344.224 533.156Z" fill="url(#paint3_linear)"/>
<path opacity="0.8" d="M355.152 533.156C356.661 533.156 357.884 531.933 357.884 530.425C357.884 528.917 356.661 527.694 355.152 527.694C353.643 527.694 352.42 528.917 352.42 530.425C352.42 531.933 353.643 533.156 355.152 533.156Z" fill="url(#paint4_linear)"/>
</g>
<g opacity="0.1">
<path opacity="0.8" d="M543.66 331.085C545.169 331.085 546.392 329.863 546.392 328.354C546.392 326.846 545.169 325.624 543.66 325.624C542.151 325.624 540.928 326.846 540.928 328.354C540.928 329.863 542.151 331.085 543.66 331.085Z" fill="url(#paint5_linear)"/>
<path opacity="0.8" d="M554.588 331.085C556.097 331.085 557.32 329.863 557.32 328.354C557.32 326.846 556.097 325.624 554.588 325.624C553.079 325.624 551.856 326.846 551.856 328.354C551.856 329.863 553.079 331.085 554.588 331.085Z" fill="url(#paint6_linear)"/>
<path opacity="0.8" d="M565.516 331.085C567.025 331.085 568.248 329.863 568.248 328.354C568.248 326.846 567.025 325.624 565.516 325.624C564.007 325.624 562.784 326.846 562.784 328.354C562.784 329.863 564.007 331.085 565.516 331.085Z" fill="url(#paint7_linear)"/>
<path opacity="0.8" d="M576.444 331.085C577.953 331.085 579.176 329.863 579.176 328.354C579.176 326.846 577.953 325.624 576.444 325.624C574.935 325.624 573.712 326.846 573.712 328.354C573.712 329.863 574.935 331.085 576.444 331.085Z" fill="url(#paint8_linear)"/>
<path opacity="0.8" d="M587.372 331.085C588.881 331.085 590.104 329.863 590.104 328.354C590.104 326.846 588.881 325.624 587.372 325.624C585.863 325.624 584.64 326.846 584.64 328.354C584.64 329.863 585.863 331.085 587.372 331.085Z" fill="url(#paint9_linear)"/>
</g>
<g opacity="0.1">
<path opacity="0.8" d="M478.092 79.872C479.601 79.872 480.824 78.6494 480.824 77.1413C480.824 75.6333 479.601 74.4107 478.092 74.4107C476.583 74.4107 475.36 75.6333 475.36 77.1413C475.36 78.6494 476.583 79.872 478.092 79.872Z" fill="url(#paint10_linear)"/>
<path opacity="0.8" d="M489.02 79.872C490.529 79.872 491.752 78.6494 491.752 77.1413C491.752 75.6333 490.529 74.4107 489.02 74.4107C487.511 74.4107 486.288 75.6333 486.288 77.1413C486.288 78.6494 487.511 79.872 489.02 79.872Z" fill="url(#paint11_linear)"/>
<path opacity="0.8" d="M499.948 79.872C501.457 79.872 502.68 78.6494 502.68 77.1413C502.68 75.6333 501.457 74.4107 499.948 74.4107C498.439 74.4107 497.216 75.6333 497.216 77.1413C497.216 78.6494 498.439 79.872 499.948 79.872Z" fill="url(#paint12_linear)"/>
<path opacity="0.8" d="M510.876 79.872C512.385 79.872 513.608 78.6494 513.608 77.1413C513.608 75.6333 512.385 74.4107 510.876 74.4107C509.367 74.4107 508.144 75.6333 508.144 77.1413C508.144 78.6494 509.367 79.872 510.876 79.872Z" fill="url(#paint13_linear)"/>
<path opacity="0.8" d="M521.804 79.872C523.313 79.872 524.536 78.6494 524.536 77.1413C524.536 75.6333 523.313 74.4107 521.804 74.4107C520.295 74.4107 519.072 75.6333 519.072 77.1413C519.072 78.6494 520.295 79.872 521.804 79.872Z" fill="url(#paint14_linear)"/>
</g>
<g opacity="0.1">
<g opacity="0.1">
<path opacity="0.8" d="M636.392 209.906C637.901 209.906 639.124 208.684 639.124 207.176C639.124 205.668 637.901 204.445 636.392 204.445C634.883 204.445 633.66 205.668 633.66 207.176C633.66 208.684 634.883 209.906 636.392 209.906Z" fill="url(#paint15_linear)"/>
<path opacity="0.8" d="M647.32 209.906C648.829 209.906 650.052 208.684 650.052 207.176C650.052 205.668 648.829 204.445 647.32 204.445C645.811 204.445 644.588 205.668 644.588 207.176C644.588 208.684 645.811 209.906 647.32 209.906Z" fill="url(#paint16_linear)"/>
<path opacity="0.8" d="M658.248 209.906C659.757 209.906 660.98 208.684 660.98 207.176C660.98 205.668 659.757 204.445 658.248 204.445C656.739 204.445 655.516 205.668 655.516 207.176C655.516 208.684 656.739 209.906 658.248 209.906Z" fill="url(#paint17_linear)"/>
<path opacity="0.8" d="M669.176 209.906C670.685 209.906 671.908 208.684 671.908 207.176C671.908 205.668 670.685 204.445 669.176 204.445C667.667 204.445 666.444 205.668 666.444 207.176C666.444 208.684 667.667 209.906 669.176 209.906Z" fill="url(#paint18_linear)"/>
</g>
<g opacity="0.1">
<path opacity="0.8" d="M871.508 527.694C873.017 527.694 874.24 526.472 874.24 524.964C874.24 523.456 873.017 522.233 871.508 522.233C869.999 522.233 868.776 523.456 868.776 524.964C868.776 526.472 869.999 527.694 871.508 527.694Z" fill="url(#paint19_linear)"/>
<path opacity="0.8" d="M882.436 527.694C883.945 527.694 885.168 526.472 885.168 524.964C885.168 523.456 883.945 522.233 882.436 522.233C880.927 522.233 879.704 523.456 879.704 524.964C879.704 526.472 880.927 527.694 882.436 527.694Z" fill="url(#paint20_linear)"/>
<path opacity="0.8" d="M893.364 527.694C894.873 527.694 896.096 526.472 896.096 524.964C896.096 523.456 894.873 522.233 893.364 522.233C891.855 522.233 890.632 523.456 890.632 524.964C890.632 526.472 891.855 527.694 893.364 527.694Z" fill="url(#paint21_linear)"/>
<path opacity="0.8" d="M904.292 527.694C905.801 527.694 907.024 526.472 907.024 524.964C907.024 523.456 905.801 522.233 904.292 522.233C902.783 522.233 901.56 523.456 901.56 524.964C901.56 526.472 902.783 527.694 904.292 527.694Z" fill="url(#paint22_linear)"/>
</g>
<g opacity="0.1">
<path opacity="0.8" d="M598.308 636.92C599.817 636.92 601.04 635.697 601.04 634.189C601.04 632.681 599.817 631.458 598.308 631.458C596.799 631.458 595.576 632.681 595.576 634.189C595.576 635.697 596.799 636.92 598.308 636.92Z" fill="url(#paint23_linear)"/>
<path opacity="0.8" d="M609.236 636.92C610.745 636.92 611.968 635.697 611.968 634.189C611.968 632.681 610.745 631.458 609.236 631.458C607.727 631.458 606.504 632.681 606.504 634.189C606.504 635.697 607.727 636.92 609.236 636.92Z" fill="url(#paint24_linear)"/>
<path opacity="0.8" d="M620.164 636.92C621.673 636.92 622.896 635.697 622.896 634.189C622.896 632.681 621.673 631.458 620.164 631.458C618.655 631.458 617.432 632.681 617.432 634.189C617.432 635.697 618.655 636.92 620.164 636.92Z" fill="url(#paint25_linear)"/>
<path opacity="0.8" d="M631.092 636.92C632.601 636.92 633.824 635.697 633.824 634.189C633.824 632.681 632.601 631.458 631.092 631.458C629.583 631.458 628.36 632.681 628.36 634.189C628.36 635.697 629.583 636.92 631.092 636.92Z" fill="url(#paint26_linear)"/>
</g>
<g opacity="0.1">
<path opacity="0.8" d="M762.228 363.853C763.737 363.853 764.96 362.631 764.96 361.122C764.96 359.614 763.737 358.392 762.228 358.392C760.719 358.392 759.496 359.614 759.496 361.122C759.496 362.631 760.719 363.853 762.228 363.853Z" fill="url(#paint27_linear)"/>
<path opacity="0.8" d="M773.156 363.853C774.665 363.853 775.888 362.631 775.888 361.122C775.888 359.614 774.665 358.392 773.156 358.392C771.647 358.392 770.424 359.614 770.424 361.122C770.424 362.631 771.647 363.853 773.156 363.853Z" fill="url(#paint28_linear)"/>
<path opacity="0.8" d="M795.012 363.853C796.521 363.853 797.744 362.631 797.744 361.122C797.744 359.614 796.521 358.392 795.012 358.392C793.503 358.392 792.28 359.614 792.28 361.122C792.28 362.631 793.503 363.853 795.012 363.853Z" fill="url(#paint29_linear)"/>
</g>
<g opacity="0.1">
<path opacity="0.8" d="M84.3368 691.489C82.828 691.489 81.6048 690.267 81.6048 688.759C81.6048 687.251 82.828 686.028 84.3368 686.028C85.8457 686.028 87.0688 687.251 87.0688 688.759C87.0688 690.267 85.8457 691.489 84.3368 691.489Z" fill="url(#paint30_linear)"/>
<path opacity="0.8" d="M73.4088 691.489C71.8999 691.489 70.6768 690.267 70.6768 688.759C70.6768 687.251 71.8999 686.028 73.4088 686.028C74.9176 686.028 76.1408 687.251 76.1408 688.759C76.1408 690.267 74.9176 691.489 73.4088 691.489Z" fill="url(#paint31_linear)"/>
<path opacity="0.8" d="M51.5528 691.489C50.044 691.489 48.8208 690.267 48.8208 688.759C48.8208 687.251 50.044 686.028 51.5528 686.028C53.0616 686.028 54.2848 687.251 54.2848 688.759C54.2848 690.267 53.0616 691.489 51.5528 691.489Z" fill="url(#paint32_linear)"/>
</g>
<g opacity="0.1">
<path opacity="0.8" d="M138.971 451.191C140.48 451.191 141.703 449.968 141.703 448.46C141.703 446.952 140.48 445.729 138.971 445.729C137.463 445.729 136.239 446.952 136.239 448.46C136.239 449.968 137.463 451.191 138.971 451.191Z" fill="url(#paint33_linear)"/>
<path opacity="0.8" d="M149.899 451.191C151.408 451.191 152.631 449.968 152.631 448.46C152.631 446.952 151.408 445.729 149.899 445.729C148.391 445.729 147.167 446.952 147.167 448.46C147.167 449.968 148.391 451.191 149.899 451.191Z" fill="url(#paint34_linear)"/>
<path opacity="0.8" d="M171.755 451.191C173.264 451.191 174.487 449.968 174.487 448.46C174.487 446.952 173.264 445.729 171.755 445.729C170.247 445.729 169.023 446.952 169.023 448.46C169.023 449.968 170.247 451.191 171.755 451.191Z" fill="url(#paint35_linear)"/>
</g>
<g opacity="0.1">
<path opacity="0.8" d="M1150.17 440.312C1148.66 440.312 1147.44 439.089 1147.44 437.581C1147.44 436.073 1148.66 434.851 1150.17 434.851C1151.68 434.851 1152.9 436.073 1152.9 437.581C1152.9 439.089 1151.68 440.312 1150.17 440.312Z" fill="url(#paint36_linear)"/>
<path opacity="0.8" d="M1139.24 440.312C1137.74 440.312 1136.51 439.089 1136.51 437.581C1136.51 436.073 1137.74 434.851 1139.24 434.851C1140.75 434.851 1141.98 436.073 1141.98 437.581C1141.98 439.089 1140.75 440.312 1139.24 440.312Z" fill="url(#paint37_linear)"/>
<path opacity="0.8" d="M1117.39 440.312C1115.88 440.312 1114.66 439.089 1114.66 437.581C1114.66 436.073 1115.88 434.851 1117.39 434.851C1118.9 434.851 1120.12 436.073 1120.12 437.581C1120.12 439.089 1118.9 440.312 1117.39 440.312Z" fill="url(#paint38_linear)"/>
</g>
</g>
<g opacity="0.4">
<path opacity="0.4" d="M805.005 273.696L798.912 277.819L783.939 277.579L772.307 292.113L781.015 290.625L796.42 286.166L805.005 273.696Z" fill="url(#paint39_linear)"/>
<path opacity="0.4" d="M772.304 292.102L784.604 279.683L798.908 277.809L785.14 280.679L772.304 292.102Z" fill="url(#paint40_linear)"/>
<path opacity="0.4" d="M772.304 292.102L787.67 286.886L798.019 281.675L805.002 273.686L797.099 280.373L784.833 285.966L772.304 292.102Z" fill="url(#paint41_linear)"/>
<path opacity="0.4" d="M772.304 292.102L787.67 286.886L798.019 281.675L805.002 273.686L798.633 282.936L788.13 287.728L772.304 292.102Z" fill="url(#paint42_linear)"/>
</g>
<g opacity="0.4">
<path opacity="0.4" d="M364.613 418.693L379.975 418.24L391.1 404.832L379.761 402.73L365.482 414.314L356.651 414.09L364.613 418.693Z" fill="url(#paint43_linear)"/>
<path opacity="0.4" d="M391.086 404.821L380.305 410.346L374.708 415.709L365.126 417.088L359.886 415.593L365.356 416.322L374.402 413.794L380.535 408.124L391.086 404.821Z" fill="url(#paint44_linear)"/>
<path opacity="0.4" d="M391.087 404.822L379.962 418.23L364.6 418.684L356.639 414.081L364.744 417.856L379.386 416.783L391.087 404.822Z" fill="url(#paint45_linear)"/>
<path opacity="0.4" d="M387.698 404.193L380.148 404.215L365.464 414.303L379.743 402.719L387.698 404.193Z" fill="url(#paint46_linear)"/>
</g>
<path d="M612.273 665.946L602.3 672.661L592.327 673.749L581.922 686.752L596.911 684.944L606.206 679.813L612.273 665.946Z" fill="url(#paint47_linear)"/>
<path d="M581.922 686.752L592.327 673.749L602.3 672.661L612.273 665.946L601.542 675.089L592.327 676.064L581.922 686.752Z" fill="url(#paint48_linear)"/>
<path d="M581.922 686.752L594.387 679.64L601.651 678.123L612.273 665.946L602.409 678.448L594.604 680.615L581.922 686.752Z" fill="url(#paint49_linear)"/>
<path d="M581.922 686.752L596.013 683.541L606.206 679.813L609.596 669.339L612.273 665.946L606.206 679.813L596.911 684.943L581.922 686.752Z" fill="url(#paint50_linear)"/>
</g>
<g opacity="0.4">
<path opacity="0.4" d="M1160.53 424.482L1148.05 521.59L1258.44 660.122L1366 704.949V598.174L1301.37 581.657L1235.13 514.234L1230.96 426.454L1160.53 424.481L1160.53 424.482Z" fill="url(#paint51_linear)"/>
<path opacity="0.4" d="M-2.05189e-05 384.833L88.3119 441.89L250.216 419.823L370.418 309.488L490.621 240.833L456.277 155.017L470.995 76.5563L412.121 5.45245L380.23 -51.2061H-0.00958252L-2.05189e-05 384.833Z" fill="url(#paint52_linear)"/>
<path opacity="0.4" d="M267.129 -51.2L385.084 13.8172L421.509 91.8351L456.277 155.025L434.518 203.664L490.62 240.842L456.276 155.025L470.995 76.5652L412.12 5.46135L380.229 -51.1973L267.129 -51.2Z" fill="url(#paint53_linear)"/>
<path opacity="0.4" d="M490.613 240.844L408.38 236.538L369.465 168.124L301.815 110.911L227.226 76.2368L208.146 -6.98302L98.8656 -51.1925H-0.00549316V384.841L88.3064 441.898L250.21 419.831L370.413 309.495L490.613 240.844Z" fill="url(#paint54_linear)"/>
<path opacity="0.4" d="M-1.74982e-05 166.819L145.706 119.573L180.397 169.853L274.066 185.457L277.535 260.009L422.44 279.781L370.415 309.496L250.212 419.831L88.3086 441.898L-0.0032959 384.841L-1.74982e-05 166.819Z" fill="url(#paint55_linear)"/>
<path d="M119.689 403.92L109.281 521.817L0.00134277 691.724V577.648L33.8262 519.217L30.3571 381.384L119.689 403.92Z" fill="url(#paint56_linear)"/>
<path opacity="0.4" d="M370.404 309.494L243.473 378.601L175.181 351.898L67.6361 353.632L-0.0136719 310.288V384.841L88.2982 441.898L250.202 419.831L370.404 309.494Z" fill="url(#paint57_linear)"/>
<path opacity="0.4" d="M775.369 -51.2L799.653 116.108L893.323 155.984L910.669 270.412L1052.91 403.912L1170.86 426.451L1366.01 372.233V-51.2109L775.369 -51.2Z" fill="url(#paint58_linear)"/>
<path opacity="0.4" d="M827.413 -51.2L828.132 79.7L893.328 155.987L943.633 247.876L910.674 270.415L893.328 155.987L799.659 116.111L775.374 -51.1973L827.413 -51.2Z" fill="url(#paint59_linear)"/>
<path opacity="0.4" d="M913.635 -51.2L1012.04 7.61311L1000.97 104.776L1059.52 174.582L1013 244.406L910.661 270.412L1052.9 403.911L1170.85 426.45L1366 372.233V-51.2115L913.635 -51.2Z" fill="url(#paint60_linear)"/>
<path opacity="0.4" d="M947.266 304.77L1051.16 308.548L1137.73 244.266L1215.94 164.648L1365.99 160.512V372.228L1170.84 426.446L1052.89 403.907L947.266 304.77Z" fill="url(#paint61_linear)"/>
<path opacity="0.4" d="M1019.15 372.217L1184.85 375.688L1366 266.369V372.226L1170.86 426.443L1052.9 403.904L1019.15 372.217Z" fill="url(#paint62_linear)"/>
<path opacity="0.4" d="M88.3119 441.904L51.5146 438.226L44.1554 519.752L0.000793457 614.152V577.645L33.8257 519.215L30.947 404.843L88.3119 441.904Z" fill="url(#paint63_linear)"/>
<path opacity="0.4" d="M115.82 447.72L116.677 438.021L88.313 441.887L51.5157 438.209L49.3999 461.648L63.7811 530.769L-0.00012207 640.492V691.706L109.28 521.799L115.82 447.72Z" fill="url(#paint64_linear)"/>
<path opacity="0.4" d="M115.82 447.72L82.1786 499.507L109.28 521.797L115.82 447.72Z" fill="url(#paint65_linear)"/>
<path opacity="0.4" d="M82.1786 499.521L79.7255 544.268L0.000244141 655.218V691.722L109.28 521.814L82.1786 499.521Z" fill="url(#paint66_linear)"/>
<path opacity="0.4" d="M1160.53 424.482L1204.47 446.806L1211.83 522.814L1301.37 581.66L1235.13 514.232L1232.98 409.194L1160.53 424.482Z" fill="url(#paint67_linear)"/>
<path opacity="0.4" d="M1160.53 424.482L1178.71 471.324L1165.22 520.361L1258.44 660.12L1148.05 521.587L1160.53 424.482Z" fill="url(#paint68_linear)"/>
<path opacity="0.4" d="M1204.48 446.792L1192.22 519.122L1251.09 612.295L1258.45 660.109L1366.01 704.935V598.161L1301.38 581.643L1211.84 522.8L1204.49 446.789L1204.48 446.792Z" fill="url(#paint69_linear)"/>
<path opacity="0.4" d="M1211.83 522.813L1307.51 651.54L1366 690.239V598.174L1301.37 581.657L1211.84 522.814L1211.83 522.813Z" fill="url(#paint70_linear)"/>
<path opacity="0.4" d="M1301.36 581.659L1365.99 628.348V598.177L1301.36 581.659V581.659Z" fill="url(#paint71_linear)"/>
<g opacity="0.4">
<path opacity="0.4" d="M684.191 84.7326L678.989 89.9326L664.245 92.5353L653.835 105.538L663.84 105.895L678.119 98.5992L684.191 84.7326Z" fill="url(#paint72_linear)"/>
<path opacity="0.4" d="M653.833 105.54L665.607 96.2928L679.559 91.3509L666.22 97.4039L653.833 105.54Z" fill="url(#paint73_linear)"/>
<path opacity="0.4" d="M664.245 92.5423L658.433 99.8012L664.688 93.4626L678.988 89.9397C678.988 89.9397 683.121 87.1828 683.177 87.0542C683.233 86.9256 684.19 84.7398 684.19 84.7398L678.988 89.9398L664.245 92.5423Z" fill="url(#paint74_linear)"/>
<path opacity="0.4" d="M653.833 105.54L664.917 99.5874C664.917 99.5874 675.764 95.6413 675.917 95.4881C676.071 95.3349 679.558 91.3506 679.558 91.3506L682.066 89.5833L678.117 98.6014L663.838 105.897L653.833 105.54Z" fill="url(#paint75_linear)"/>
</g>
<g opacity="0.6">
<path opacity="0.6" d="M1041.77 432.183L1026.4 432.636L1015.28 446.044L1026.62 448.145L1040.9 436.561L1049.73 436.785L1041.77 432.183Z" fill="url(#paint76_linear)"/>
<path opacity="0.6" d="M1015.29 446.055L1026.07 440.53L1031.67 435.167L1041.25 433.787L1046.49 435.283L1041.02 434.554L1031.98 437.082L1025.84 442.752L1015.29 446.055Z" fill="url(#paint77_linear)"/>
<path opacity="0.6" d="M1015.29 446.053L1026.42 432.645L1041.78 432.192L1049.74 436.795L1041.63 433.019L1026.99 434.092L1015.29 446.053Z" fill="url(#paint78_linear)"/>
<path opacity="0.6" d="M1018.68 446.682L1026.23 446.661L1040.91 436.573L1026.64 448.157L1018.68 446.682Z" fill="url(#paint79_linear)"/>
</g>
<g opacity="0.6">
<path opacity="0.6" d="M600.482 398.557L590.509 405.272L580.536 406.36L570.131 419.362L585.119 417.554L594.415 412.424L600.482 398.557Z" fill="url(#paint80_linear)"/>
<path opacity="0.6" d="M570.13 419.362L580.535 406.36L590.508 405.272L600.481 398.557L589.751 407.699L580.536 408.675L570.13 419.362Z" fill="url(#paint81_linear)"/>
<path opacity="0.6" d="M570.13 419.362L582.596 412.25L589.859 410.733L600.481 398.557L590.618 411.059L582.812 413.226L570.13 419.362Z" fill="url(#paint82_linear)"/>
<path opacity="0.6" d="M570.13 419.362L584.222 416.151L594.414 412.424L597.804 401.95L600.481 398.557L594.414 412.423L585.119 417.554L570.13 419.362Z" fill="url(#paint83_linear)"/>
</g>
<g opacity="0.6">
<path opacity="0.6" d="M736.765 519.072L730.256 525.36L721.153 531.643L717.247 547.68L732.241 540.672L735.896 530.342L736.765 519.072Z" fill="url(#paint84_linear)"/>
<path opacity="0.6" d="M717.258 547.689L726.149 534.32L733.738 525.651L736.777 519.081L733.576 527.656L725.716 536.704L717.258 547.689Z" fill="url(#paint85_linear)"/>
<path opacity="0.6" d="M717.259 547.689L729.295 539.685L733.848 529.824L733.577 527.657L736.528 522.316L735.908 530.351L732.253 540.681L717.259 547.689Z" fill="url(#paint86_linear)"/>
<path opacity="0.6" d="M717.258 547.689L722.246 535.675L732.762 525.326L736.777 519.081L733.738 525.651L722.68 536.054L717.258 547.689Z" fill="url(#paint87_linear)"/>
<path opacity="0.6" d="M721.166 531.661L719.561 538.249L722.465 531.837L729.805 525.698L721.166 531.661Z" fill="url(#paint88_linear)"/>
</g>
<g opacity="0.4">
<path opacity="0.4" d="M254.119 555.609L248.917 560.809L234.174 563.411L223.763 576.414L233.768 576.771L248.047 569.475L254.119 555.609Z" fill="url(#paint89_linear)"/>
<path opacity="0.4" d="M223.762 576.416L235.535 567.169L249.487 562.227L236.148 568.28L223.762 576.416Z" fill="url(#paint90_linear)"/>
<path opacity="0.4" d="M234.173 563.418L228.362 570.677L234.616 564.339L248.916 560.816C248.916 560.816 253.049 558.059 253.105 557.93C253.162 557.802 254.119 555.616 254.119 555.616L248.916 560.816L234.173 563.418Z" fill="url(#paint91_linear)"/>
<path opacity="0.4" d="M223.762 576.416L234.845 570.464C234.845 570.464 245.693 566.517 245.846 566.364C245.999 566.211 249.487 562.227 249.487 562.227L251.995 560.46L248.046 569.478L233.767 576.774L223.762 576.416Z" fill="url(#paint92_linear)"/>
</g>
</g>
<path d="M-0.000671387 -51.2006V456.348L26.0173 435.132L55.5092 374.449L111.013 393.521L227.229 362.309L242.842 298.161L265.392 237.482L225.493 173.334L197.742 83.178L112.747 27.6963L145.705 -22.5807L131.827 -51.1899L-0.000671387 -51.2006ZM1100.83 3.41274L1023.85 153.242L1077.82 231.705L1058.2 322.426L1183.3 427.854L1366.01 457.583V-51.1951H1170.86L1100.83 3.41274ZM1021.72 657.107L1019.27 679.176L1004.55 687.758L831.606 719.63L1040.12 707.374L1106.3 744.514L1192.71 738.993L1366 767.998V457.576L1319.64 450.033L1334.65 691.869L1281.54 669.733L1256 644.196L1269.87 683.52L1253.73 692.568L1218.97 688.174L1134.88 695.135L1110.59 696.884L1047.48 664.458L1021.72 657.107ZM0.00752461 627.567V676.853L90.2072 663.973L159.589 696.915L263.192 720.168L442.329 702.115L343.461 698.649H263.667L176.937 674.377L81.5359 627.565L0.00752461 627.567Z" fill="url(#paint93_linear)"/>
<path d="M1077.83 231.697L1064.19 153.373L1105.7 61.7076L1159.6 36.3438L1208.85 -51.2096H1170.87L1100.84 3.40379L1023.86 153.233L1077.83 231.697Z" fill="url(#paint94_linear)"/>
<path d="M831.594 719.64L1004.54 687.767L1019.26 679.186L1021.71 657.117L1026.16 683.475L1006.07 697.421L831.594 719.64Z" fill="url(#paint95_linear)"/>
<path d="M0 627.562H81.5283L176.93 674.373L263.66 698.645H343.453L442.322 702.112L322.122 702.56L300.827 704.743L262.518 700.321L172.944 678.654L80.406 631.834L32.1972 633.438L0 627.562Z" fill="url(#paint96_linear)"/>
<path d="M831.593 719.64L1028.76 701.558L1046.23 695.99L1060.59 700.306L1062.82 689.419L1051.8 674.441L1111.44 717.449L1144.74 721.006L1200.39 719.94L1171.54 704.003L1203 709.682L1257.65 711.243L1338.17 726.387L1340.44 694.299L1365.99 644.21V768.008L1192.7 739.003L1106.29 744.523L1040.11 707.383L831.593 719.64Z" fill="url(#paint97_linear)"/>
<path d="M1040.1 707.379L1048.77 706.021L1067.2 716.207L1092.79 719.891L1111.53 732L1152.66 727.849L1194.69 731.247L1365.98 747.886V768.003L1192.69 738.998L1106.28 744.518L1040.1 707.379Z" fill="url(#paint98_linear)"/>
<path d="M442.311 702.109L324.111 706.209L304.769 710.808L261.404 704.722L164.117 682.512L76.2397 639.973L19.0863 643.675L-0.0109253 634.089V676.845L90.1888 663.965L159.571 696.908L263.174 720.161L442.311 702.109Z" fill="url(#paint99_linear)"/>
<path d="M-2.91638e-06 652.22L34.6909 649.68L55.9399 657.482L88.03 656.182L140.069 681.755L262.009 715.765L313.887 715.071L263.184 720.181L159.581 696.928L90.1992 663.985L-0.000549316 676.865L-2.91638e-06 652.22Z" fill="url(#paint100_linear)"/>
<path d="M1058.19 322.437L1137.74 298.896L1156.44 208.033L1251.54 119.1L1287.48 58.5914L1365.99 8.31158V457.588L1183.29 427.859L1058.19 322.437Z" fill="url(#paint101_linear)"/>
<path d="M1139.3 390.758L1233.69 381.447L1265.02 277.499L1366.01 243.371V457.57L1183.31 427.841L1139.3 390.758Z" fill="url(#paint102_linear)"/>
<path d="M65.9149 -51.2L106.709 -17.834L112.748 27.6862L175.395 96.1796L198.7 180.77L265.393 237.472L225.495 173.324L197.744 83.1679L112.748 27.6862L145.707 -22.5908L131.828 -51.2H65.9149Z" fill="url(#paint103_linear)"/>
<path d="M265.395 237.459L183.984 270.251L112.845 208.953L109.166 114.554L29.4403 88.8091L0.00299072 55.708V456.324L26.0209 435.108L55.5129 374.425L111.016 393.497L227.233 362.285L242.846 298.136L265.395 237.459Z" fill="url(#paint104_linear)"/>
<path d="M0 235.93L66.2346 270.257L88.3124 348.717L227.232 362.291L111.015 393.502L55.5121 374.43L26.0201 435.114L0.0021856 456.33L0 235.93Z" fill="url(#paint105_linear)"/>
<path d="M164.379 379.18L111.881 382.675L36.4258 347.133L16.9114 393.51L-0.00109863 407.381V456.339L26.0168 435.123L55.5088 374.439L111.012 393.511L164.379 379.18Z" fill="url(#paint106_linear)"/>
<path d="M1183.28 427.868C1183.28 427.868 1303.98 433.397 1307.88 432.964C1311.78 432.53 1365.99 396.121 1365.99 396.121V457.597L1183.28 427.868Z" fill="url(#paint107_linear)"/>
<path d="M1262.92 663.852L1208.75 668.685L1181.16 655.812L1176.86 632.519L1170.73 605.548L1203.23 590.837L1221.63 565.704L1291.09 574.895L1297.06 607.081L1308.35 625.7L1297.52 643.607L1262.92 663.852Z" fill="url(#paint108_linear)"/>
<path d="M1082.06 682.23L1109.72 699.945L1196.43 690.042L1110.59 696.886L1082.06 682.23Z" fill="url(#paint109_linear)"/>
<path d="M1208.77 668.685L1187 646.618L1199.27 625.164L1206.15 594.466L1225.02 578.885L1259.78 570.75L1221.66 565.705L1203.26 590.838L1170.75 605.55L1181.18 655.813L1208.77 668.685Z" fill="url(#paint110_linear)"/>
<path d="M1208.77 668.685L1227.78 648.764L1215.52 630.987L1224.63 609.39L1252.62 599.112L1268.65 585.165L1259.78 570.749L1291.12 574.895L1297.09 607.082L1308.37 625.7L1297.55 643.607L1262.94 663.853L1208.77 668.685Z" fill="url(#paint111_linear)"/>
<path d="M1223.69 667.375L1249.7 654.433L1265.49 629.169L1287.77 610.291L1291.1 574.917L1297.07 607.104L1308.36 625.722L1297.54 643.629L1262.93 663.875L1223.69 667.375Z" fill="url(#paint112_linear)"/>
<path d="M1262.92 663.852L1278.39 675.664L1334.64 691.863L1281.52 669.727L1270.95 659.155L1262.92 663.852Z" fill="url(#paint113_linear)"/>
<path d="M1334.64 691.869L1335.74 644.838L1347.97 633.75C1347.97 633.75 1363.3 607.086 1361.77 605.248C1360.24 603.409 1343.98 581.035 1344.29 579.809C1344.6 578.583 1349.5 561.42 1349.5 561.42L1325.8 549.51L1334.64 691.869Z" fill="url(#paint114_linear)"/>
<path d="M1330.05 551.649L1339.99 484.103L1320.51 463.891L1325.82 549.525L1330.05 551.649Z" fill="url(#paint115_linear)"/>
<path d="M1319.64 450.041L1356.46 471.528L1366 533.077V457.585L1319.64 450.041Z" fill="url(#paint116_linear)"/>
<path d="M1347.5 466.316L1345.61 533.086L1365.99 586.834V651.57L1347.5 697.248L1359.79 747.293L1365.99 747.896V533.087L1356.45 471.538L1347.5 466.316Z" fill="url(#paint117_linear)"/>
<path d="M1196.42 690.039L1216.6 699.726L1252.6 697.776L1269.87 683.52L1253.72 692.567L1218.97 688.174L1196.42 690.039Z" fill="url(#paint118_linear)"/>
<path d="M1266.72 674.556L1274.95 683.038L1305.52 693.441L1269.88 683.519L1266.72 674.556Z" fill="url(#paint119_linear)"/>
<path d="M997.125 602.493L1010.78 599.763L1018.98 591.571L1035.37 588.84V597.032L1038.1 610.685L1081.82 665.298L1059.96 651.645L1049.03 657.107H1021.71L1008.05 646.184L1005.32 624.339L1010.78 607.955L997.125 602.493Z" fill="#5F48BE"/>
<path d="M997.124 602.493H1012.15L1013.52 605.225L1010.78 607.957L997.124 602.493Z" fill="#393190"/>
<path d="M1018.98 591.571L1035.37 588.84L1021.71 593.252L1015.09 602.494H1012.15L1010.78 599.763L1018.98 591.571Z" fill="#9F63D4"/>
<path d="M1006.69 635.261L1010.79 607.955L1005.32 624.339L1006.69 635.261Z" fill="#9F63D4"/>
<path d="M1008.05 646.184L1021.71 657.106H1049.03L1059.96 651.645L1081.82 665.298L1038.1 610.685L1035.37 597.032V588.84L1031.24 597.032L1032.64 613.416L1051.76 640.722L1035.37 643.453L1018.98 629.8L1013.52 621.608L1008.05 646.184Z" fill="#4B3CA7"/>
<path d="M1013.52 650.566L1021.71 657.107H1049.03L1059.96 651.646L1081.82 665.299L1038.11 610.685L1035.37 597.032V610.685L1057.23 640.722L1038.11 648.914L1027.18 643.453L1016.25 632.531L1024.45 643.453L1029.91 648.914L1013.52 650.566Z" fill="#393190"/>
<path d="M1021.71 657.107L1029.91 654.376L1032.64 648.915L1038.1 651.645L1057.23 646.184L1081.82 665.299L1059.96 651.646L1049.03 657.107L1021.71 657.107Z" fill="#282677"/>
<path d="M1021.71 657.107L1037.94 671.991L1084.2 683.333L1047.47 664.462L1021.71 657.107Z" fill="url(#paint120_linear)"/>
<path d="M1021.71 657.107L1043.58 668.524L1056 668.846L1047.47 664.462L1021.71 657.107Z" fill="url(#paint121_linear)"/>
</g>
<defs>
<linearGradient id="paint0_linear" x1="1625.54" y1="582.306" x2="1631.01" y2="582.306" gradientUnits="userSpaceOnUse">
<stop stop-color="#9F63D4"/>
</linearGradient>
<linearGradient id="paint1_linear" x1="1636.44" y1="582.306" x2="1641.91" y2="582.306" gradientUnits="userSpaceOnUse">
<stop stop-color="#9F63D4"/>
</linearGradient>
<linearGradient id="paint2_linear" x1="1647.41" y1="582.306" x2="1652.88" y2="582.306" gradientUnits="userSpaceOnUse">
<stop stop-color="#9F63D4"/>
</linearGradient>
<linearGradient id="paint3_linear" x1="1658.31" y1="582.306" x2="1663.78" y2="582.306" gradientUnits="userSpaceOnUse">
<stop stop-color="#9F63D4"/>
</linearGradient>
<linearGradient id="paint4_linear" x1="1669.25" y1="582.306" x2="1674.71" y2="582.306" gradientUnits="userSpaceOnUse">
<stop stop-color="#9F63D4"/>
</linearGradient>
<linearGradient id="paint5_linear" x1="1529.89" y1="380.237" x2="1535.35" y2="380.237" gradientUnits="userSpaceOnUse">
<stop stop-color="#4B3CA7"/>
</linearGradient>
<linearGradient id="paint6_linear" x1="1540.84" y1="380.237" x2="1546.3" y2="380.237" gradientUnits="userSpaceOnUse">
<stop stop-color="#4B3CA7"/>
</linearGradient>
<linearGradient id="paint7_linear" x1="1551.73" y1="380.237" x2="1557.2" y2="380.237" gradientUnits="userSpaceOnUse">
<stop stop-color="#4B3CA7"/>
</linearGradient>
<linearGradient id="paint8_linear" x1="1562.68" y1="380.237" x2="1568.15" y2="380.237" gradientUnits="userSpaceOnUse">
<stop stop-color="#4B3CA7"/>
</linearGradient>
<linearGradient id="paint9_linear" x1="1573.62" y1="380.237" x2="1579.09" y2="380.237" gradientUnits="userSpaceOnUse">
<stop stop-color="#4B3CA7"/>
</linearGradient>
<linearGradient id="paint10_linear" x1="1464.34" y1="129.024" x2="1469.8" y2="129.024" gradientUnits="userSpaceOnUse">
<stop stop-color="#4B3CA7"/>
</linearGradient>
<linearGradient id="paint11_linear" x1="1475.29" y1="129.024" x2="1480.75" y2="129.024" gradientUnits="userSpaceOnUse">
<stop stop-color="#4B3CA7"/>
</linearGradient>
<linearGradient id="paint12_linear" x1="1486.2" y1="129.024" x2="1491.66" y2="129.024" gradientUnits="userSpaceOnUse">
<stop stop-color="#4B3CA7"/>
</linearGradient>
<linearGradient id="paint13_linear" x1="1497.16" y1="129.024" x2="1502.62" y2="129.024" gradientUnits="userSpaceOnUse">
<stop stop-color="#4B3CA7"/>
</linearGradient>
<linearGradient id="paint14_linear" x1="1508.1" y1="129.024" x2="1513.56" y2="129.024" gradientUnits="userSpaceOnUse">
<stop stop-color="#4B3CA7"/>
</linearGradient>
<linearGradient id="paint15_linear" x1="1950.54" y1="259.058" x2="1956" y2="259.058" gradientUnits="userSpaceOnUse">
<stop stop-color="#9F63D4"/>
</linearGradient>
<linearGradient id="paint16_linear" x1="1961.32" y1="259.058" x2="1966.79" y2="259.058" gradientUnits="userSpaceOnUse">
<stop stop-color="#9F63D4"/>
</linearGradient>
<linearGradient id="paint17_linear" x1="1972.28" y1="259.058" x2="1977.74" y2="259.058" gradientUnits="userSpaceOnUse">
<stop stop-color="#9F63D4"/>
</linearGradient>
<linearGradient id="paint18_linear" x1="1983.28" y1="259.058" x2="1988.74" y2="259.058" gradientUnits="userSpaceOnUse">
<stop stop-color="#9F63D4"/>
</linearGradient>
<linearGradient id="paint19_linear" x1="2185.63" y1="576.846" x2="2191.09" y2="576.846" gradientUnits="userSpaceOnUse">
<stop stop-color="#9F63D4"/>
</linearGradient>
<linearGradient id="paint20_linear" x1="2196.51" y1="576.846" x2="2201.97" y2="576.846" gradientUnits="userSpaceOnUse">
<stop stop-color="#9F63D4"/>
</linearGradient>
<linearGradient id="paint21_linear" x1="2207.42" y1="576.846" x2="2212.89" y2="576.846" gradientUnits="userSpaceOnUse">
<stop stop-color="#9F63D4"/>
</linearGradient>
<linearGradient id="paint22_linear" x1="2218.35" y1="576.846" x2="2223.82" y2="576.846" gradientUnits="userSpaceOnUse">
<stop stop-color="#9F63D4"/>
</linearGradient>
<linearGradient id="paint23_linear" x1="1912.43" y1="686.072" x2="1917.89" y2="686.072" gradientUnits="userSpaceOnUse">
<stop stop-color="#9F63D4"/>
</linearGradient>
<linearGradient id="paint24_linear" x1="1923.37" y1="686.072" x2="1928.83" y2="686.072" gradientUnits="userSpaceOnUse">
<stop stop-color="#9F63D4"/>
</linearGradient>
<linearGradient id="paint25_linear" x1="1934.3" y1="686.072" x2="1939.76" y2="686.072" gradientUnits="userSpaceOnUse">
<stop stop-color="#9F63D4"/>
</linearGradient>
<linearGradient id="paint26_linear" x1="1945.17" y1="686.072" x2="1950.63" y2="686.072" gradientUnits="userSpaceOnUse">
<stop stop-color="#9F63D4"/>
</linearGradient>
<linearGradient id="paint27_linear" x1="2076.32" y1="413.005" x2="2081.78" y2="413.005" gradientUnits="userSpaceOnUse">
<stop stop-color="#9F63D4"/>
</linearGradient>
<linearGradient id="paint28_linear" x1="2087.23" y1="413.006" x2="2092.69" y2="413.006" gradientUnits="userSpaceOnUse">
<stop stop-color="#9F63D4"/>
</linearGradient>
<linearGradient id="paint29_linear" x1="2109.12" y1="413.006" x2="2114.58" y2="413.006" gradientUnits="userSpaceOnUse">
<stop stop-color="#9F63D4"/>
</linearGradient>
<linearGradient id="paint30_linear" x1="-1229.76" y1="740.641" x2="-1235.23" y2="740.641" gradientUnits="userSpaceOnUse">
<stop stop-color="#9F63D4"/>
</linearGradient>
<linearGradient id="paint31_linear" x1="-1240.69" y1="740.641" x2="-1246.16" y2="740.641" gradientUnits="userSpaceOnUse">
<stop stop-color="#9F63D4"/>
</linearGradient>
<linearGradient id="paint32_linear" x1="-1262.54" y1="740.641" x2="-1268" y2="740.641" gradientUnits="userSpaceOnUse">
<stop stop-color="#9F63D4"/>
</linearGradient>
<linearGradient id="paint33_linear" x1="1453.06" y1="500.343" x2="1458.52" y2="500.343" gradientUnits="userSpaceOnUse">
<stop stop-color="#9F63D4"/>
</linearGradient>
<linearGradient id="paint34_linear" x1="1463.98" y1="500.343" x2="1469.45" y2="500.343" gradientUnits="userSpaceOnUse">
<stop stop-color="#9F63D4"/>
</linearGradient>
<linearGradient id="paint35_linear" x1="1485.84" y1="500.343" x2="1491.31" y2="500.343" gradientUnits="userSpaceOnUse">
<stop stop-color="#9F63D4"/>
</linearGradient>
<linearGradient id="paint36_linear" x1="-163.859" y1="489.464" x2="-169.322" y2="489.464" gradientUnits="userSpaceOnUse">
<stop stop-color="#9F63D4"/>
</linearGradient>
<linearGradient id="paint37_linear" x1="-174.875" y1="489.464" x2="-180.339" y2="489.464" gradientUnits="userSpaceOnUse">
<stop stop-color="#9F63D4"/>
</linearGradient>
<linearGradient id="paint38_linear" x1="-196.672" y1="489.464" x2="-202.136" y2="489.464" gradientUnits="userSpaceOnUse">
<stop stop-color="#9F63D4"/>
</linearGradient>
<linearGradient id="paint39_linear" x1="832.411" y1="-2784.65" x2="865.109" y2="-2784.65" gradientUnits="userSpaceOnUse">
<stop stop-color="#5F48BE"/>
</linearGradient>
<linearGradient id="paint40_linear" x1="1761.29" y1="332.422" x2="1787.89" y2="332.422" gradientUnits="userSpaceOnUse">
<stop stop-color="#393190"/>
</linearGradient>
<linearGradient id="paint41_linear" x1="2089.13" y1="328.299" x2="2121.83" y2="328.299" gradientUnits="userSpaceOnUse">
<stop stop-color="#9F63D4"/>
</linearGradient>
<linearGradient id="paint42_linear" x1="1761.29" y1="328.299" x2="1793.99" y2="328.299" gradientUnits="userSpaceOnUse">
<stop stop-color="#4B3CA7"/>
</linearGradient>
<linearGradient id="paint43_linear" x1="330.996" y1="3477.03" x2="296.547" y2="3477.03" gradientUnits="userSpaceOnUse">
<stop stop-color="#5F48BE"/>
</linearGradient>
<linearGradient id="paint44_linear" x1="-597.898" y1="362.475" x2="-629.097" y2="362.475" gradientUnits="userSpaceOnUse">
<stop stop-color="#393190"/>
</linearGradient>
<linearGradient id="paint45_linear" x1="-925.734" y1="364.071" x2="-960.183" y2="364.071" gradientUnits="userSpaceOnUse">
<stop stop-color="#9F63D4"/>
</linearGradient>
<linearGradient id="paint46_linear" x1="-601.285" y1="359.69" x2="-623.519" y2="359.69" gradientUnits="userSpaceOnUse">
<stop stop-color="#4B3CA7"/>
</linearGradient>
<linearGradient id="paint47_linear" x1="642.027" y1="-2392.39" x2="672.378" y2="-2392.39" gradientUnits="userSpaceOnUse">
<stop stop-color="#5F48BE"/>
</linearGradient>
<linearGradient id="paint48_linear" x1="975.332" y1="-12187" x2="1005.68" y2="-12187" gradientUnits="userSpaceOnUse">
<stop stop-color="#282677"/>
</linearGradient>
<linearGradient id="paint49_linear" x1="1570.91" y1="720.56" x2="1601.26" y2="720.56" gradientUnits="userSpaceOnUse">
<stop stop-color="#4B3CA7"/>
</linearGradient>
<linearGradient id="paint50_linear" x1="1898.75" y1="720.56" x2="1929.1" y2="720.56" gradientUnits="userSpaceOnUse">
<stop stop-color="#9F63D4"/>
</linearGradient>
<linearGradient id="paint51_linear" x1="1208.15" y1="-2633.87" x2="1426.1" y2="-2633.87" gradientUnits="userSpaceOnUse">
<stop stop-color="#5F48BE"/>
</linearGradient>
<linearGradient id="paint52_linear" x1="60.0944" y1="-3109.55" x2="550.725" y2="-3109.55" gradientUnits="userSpaceOnUse">
<stop stop-color="#5F48BE"/>
</linearGradient>
<linearGradient id="paint53_linear" x1="1583.95" y1="3.41334" x2="1807.44" y2="3.41334" gradientUnits="userSpaceOnUse">
<stop stop-color="#9F63D4"/>
</linearGradient>
<linearGradient id="paint54_linear" x1="988.979" y1="3.42081" x2="1479.6" y2="3.42081" gradientUnits="userSpaceOnUse">
<stop stop-color="#4B3CA7"/>
</linearGradient>
<linearGradient id="paint55_linear" x1="988.981" y1="174.186" x2="1411.42" y2="174.186" gradientUnits="userSpaceOnUse">
<stop stop-color="#393190"/>
</linearGradient>
<linearGradient id="paint56_linear" x1="988.985" y1="435.997" x2="1108.67" y2="435.997" gradientUnits="userSpaceOnUse">
<stop stop-color="#393190"/>
</linearGradient>
<linearGradient id="paint57_linear" x1="393.394" y1="-6950.72" x2="763.812" y2="-6950.72" gradientUnits="userSpaceOnUse">
<stop stop-color="#282677"/>
</linearGradient>
<linearGradient id="paint58_linear" x1="835.473" y1="-3109.56" x2="1426.11" y2="-3109.56" gradientUnits="userSpaceOnUse">
<stop stop-color="#5F48BE"/>
</linearGradient>
<linearGradient id="paint59_linear" x1="2092.2" y1="3.41334" x2="2260.46" y2="3.41334" gradientUnits="userSpaceOnUse">
<stop stop-color="#9F63D4"/>
</linearGradient>
<linearGradient id="paint60_linear" x1="1899.65" y1="3.40187" x2="2354.98" y2="3.40187" gradientUnits="userSpaceOnUse">
<stop stop-color="#4B3CA7"/>
</linearGradient>
<linearGradient id="paint61_linear" x1="1936.25" y1="215.125" x2="2354.97" y2="215.125" gradientUnits="userSpaceOnUse">
<stop stop-color="#393190"/>
</linearGradient>
<linearGradient id="paint62_linear" x1="1412.55" y1="-8643.76" x2="1759.41" y2="-8643.76" gradientUnits="userSpaceOnUse">
<stop stop-color="#282677"/>
</linearGradient>
<linearGradient id="paint63_linear" x1="393.409" y1="-3207.38" x2="481.72" y2="-3207.38" gradientUnits="userSpaceOnUse">
<stop stop-color="#282677"/>
</linearGradient>
<linearGradient id="paint64_linear" x1="988.984" y1="492.634" x2="1105.66" y2="492.634" gradientUnits="userSpaceOnUse">
<stop stop-color="#4B3CA7"/>
</linearGradient>
<linearGradient id="paint65_linear" x1="1399" y1="502.333" x2="1432.64" y2="502.333" gradientUnits="userSpaceOnUse">
<stop stop-color="#9F63D4"/>
</linearGradient>
<linearGradient id="paint66_linear" x1="60.1043" y1="-2558.82" x2="169.384" y2="-2558.82" gradientUnits="userSpaceOnUse">
<stop stop-color="#5F48BE"/>
</linearGradient>
<linearGradient id="paint67_linear" x1="1553.93" y1="-3036.59" x2="1694.78" y2="-3036.59" gradientUnits="userSpaceOnUse">
<stop stop-color="#282677"/>
</linearGradient>
<linearGradient id="paint68_linear" x1="2464.87" y1="479.095" x2="2575.26" y2="479.095" gradientUnits="userSpaceOnUse">
<stop stop-color="#9F63D4"/>
</linearGradient>
<linearGradient id="paint69_linear" x1="2181.2" y1="501.403" x2="2354.99" y2="501.403" gradientUnits="userSpaceOnUse">
<stop stop-color="#4B3CA7"/>
</linearGradient>
<linearGradient id="paint70_linear" x1="2200.82" y1="577.427" x2="2354.98" y2="577.427" gradientUnits="userSpaceOnUse">
<stop stop-color="#393190"/>
</linearGradient>
<linearGradient id="paint71_linear" x1="1694.77" y1="3734.26" x2="1759.4" y2="3734.26" gradientUnits="userSpaceOnUse">
<stop stop-color="#282677"/>
</linearGradient>
<linearGradient id="paint72_linear" x1="713.939" y1="-2973.6" x2="744.295" y2="-2973.6" gradientUnits="userSpaceOnUse">
<stop stop-color="#5F48BE"/>
</linearGradient>
<linearGradient id="paint73_linear" x1="1642.82" y1="145.964" x2="1668.55" y2="145.964" gradientUnits="userSpaceOnUse">
<stop stop-color="#393190"/>
</linearGradient>
<linearGradient id="paint74_linear" x1="1975.26" y1="139.353" x2="2001.02" y2="139.353" gradientUnits="userSpaceOnUse">
<stop stop-color="#9F63D4"/>
</linearGradient>
<linearGradient id="paint75_linear" x1="1642.82" y1="144.197" x2="1671.05" y2="144.197" gradientUnits="userSpaceOnUse">
<stop stop-color="#4B3CA7"/>
</linearGradient>
<linearGradient id="paint76_linear" x1="1075.38" y1="-2626.17" x2="1109.83" y2="-2626.17" gradientUnits="userSpaceOnUse">
<stop stop-color="#5F48BE"/>
</linearGradient>
<linearGradient id="paint77_linear" x1="2004.27" y1="488.401" x2="2035.47" y2="488.401" gradientUnits="userSpaceOnUse">
<stop stop-color="#393190"/>
</linearGradient>
<linearGradient id="paint78_linear" x1="2332.09" y1="486.806" x2="2366.54" y2="486.806" gradientUnits="userSpaceOnUse">
<stop stop-color="#9F63D4"/>
</linearGradient>
<linearGradient id="paint79_linear" x1="2007.66" y1="491.186" x2="2029.89" y2="491.186" gradientUnits="userSpaceOnUse">
<stop stop-color="#4B3CA7"/>
</linearGradient>
<linearGradient id="paint80_linear" x1="630.235" y1="-2659.81" x2="660.585" y2="-2659.81" gradientUnits="userSpaceOnUse">
<stop stop-color="#5F48BE"/>
</linearGradient>
<linearGradient id="paint81_linear" x1="963.537" y1="-12454.5" x2="993.888" y2="-12454.5" gradientUnits="userSpaceOnUse">
<stop stop-color="#282677"/>
</linearGradient>
<linearGradient id="paint82_linear" x1="1559.11" y1="453.17" x2="1589.46" y2="453.17" gradientUnits="userSpaceOnUse">
<stop stop-color="#4B3CA7"/>
</linearGradient>
<linearGradient id="paint83_linear" x1="1886.94" y1="453.17" x2="1917.29" y2="453.17" gradientUnits="userSpaceOnUse">
<stop stop-color="#9F63D4"/>
</linearGradient>
<linearGradient id="paint84_linear" x1="777.351" y1="-2539.3" x2="796.869" y2="-2539.3" gradientUnits="userSpaceOnUse">
<stop stop-color="#5F48BE"/>
</linearGradient>
<linearGradient id="paint85_linear" x1="1706.24" y1="573.694" x2="1725.76" y2="573.694" gradientUnits="userSpaceOnUse">
<stop stop-color="#393190"/>
</linearGradient>
<linearGradient id="paint86_linear" x1="1706.24" y1="576.929" x2="1725.51" y2="576.929" gradientUnits="userSpaceOnUse">
<stop stop-color="#4B3CA7"/>
</linearGradient>
<linearGradient id="paint87_linear" x1="2034.09" y1="573.694" x2="2053.61" y2="573.694" gradientUnits="userSpaceOnUse">
<stop stop-color="#9F63D4"/>
</linearGradient>
<linearGradient id="paint88_linear" x1="2036.38" y1="580.31" x2="2046.62" y2="580.31" gradientUnits="userSpaceOnUse">
<stop stop-color="#9F63D4"/>
</linearGradient>
<linearGradient id="paint89_linear" x1="283.867" y1="-2502.7" x2="314.223" y2="-2502.7" gradientUnits="userSpaceOnUse">
<stop stop-color="#5F48BE"/>
</linearGradient>
<linearGradient id="paint90_linear" x1="1212.75" y1="616.84" x2="1238.47" y2="616.84" gradientUnits="userSpaceOnUse">
<stop stop-color="#393190"/>
</linearGradient>
<linearGradient id="paint91_linear" x1="1545.18" y1="610.229" x2="1570.94" y2="610.229" gradientUnits="userSpaceOnUse">
<stop stop-color="#9F63D4"/>
</linearGradient>
<linearGradient id="paint92_linear" x1="1212.75" y1="615.072" x2="1240.98" y2="615.072" gradientUnits="userSpaceOnUse">
<stop stop-color="#4B3CA7"/>
</linearGradient>
<linearGradient id="paint93_linear" x1="60.1033" y1="-3109.55" x2="1426.11" y2="-3109.55" gradientUnits="userSpaceOnUse">
<stop stop-color="#5F48BE"/>
</linearGradient>
<linearGradient id="paint94_linear" x1="2340.69" y1="3.40379" x2="2525.68" y2="3.40379" gradientUnits="userSpaceOnUse">
<stop stop-color="#9F63D4"/>
</linearGradient>
<linearGradient id="paint95_linear" x1="2148.42" y1="711.73" x2="2342.98" y2="711.73" gradientUnits="userSpaceOnUse">
<stop stop-color="#9F63D4"/>
</linearGradient>
<linearGradient id="paint96_linear" x1="1316.82" y1="682.175" x2="1759.15" y2="682.175" gradientUnits="userSpaceOnUse">
<stop stop-color="#9F63D4"/>
</linearGradient>
<linearGradient id="paint97_linear" x1="1820.58" y1="698.824" x2="2354.98" y2="698.824" gradientUnits="userSpaceOnUse">
<stop stop-color="#4B3CA7"/>
</linearGradient>
<linearGradient id="paint98_linear" x1="2029.08" y1="760.635" x2="2354.97" y2="760.635" gradientUnits="userSpaceOnUse">
<stop stop-color="#393190"/>
</linearGradient>
<linearGradient id="paint99_linear" x1="988.973" y1="688.702" x2="1431.29" y2="688.702" gradientUnits="userSpaceOnUse">
<stop stop-color="#4B3CA7"/>
</linearGradient>
<linearGradient id="paint100_linear" x1="988.983" y1="704.294" x2="1302.87" y2="704.294" gradientUnits="userSpaceOnUse">
<stop stop-color="#393190"/>
</linearGradient>
<linearGradient id="paint101_linear" x1="2047.17" y1="62.9249" x2="2354.98" y2="62.9249" gradientUnits="userSpaceOnUse">
<stop stop-color="#4B3CA7"/>
</linearGradient>
<linearGradient id="paint102_linear" x1="2128.28" y1="297.984" x2="2354.99" y2="297.984" gradientUnits="userSpaceOnUse">
<stop stop-color="#393190"/>
</linearGradient>
<linearGradient id="paint103_linear" x1="1382.74" y1="3.41335" x2="1582.22" y2="3.41335" gradientUnits="userSpaceOnUse">
<stop stop-color="#9F63D4"/>
</linearGradient>
<linearGradient id="paint104_linear" x1="988.987" y1="110.321" x2="1254.38" y2="110.321" gradientUnits="userSpaceOnUse">
<stop stop-color="#4B3CA7"/>
</linearGradient>
<linearGradient id="paint105_linear" x1="988.984" y1="290.543" x2="1216.22" y2="290.543" gradientUnits="userSpaceOnUse">
<stop stop-color="#393190"/>
</linearGradient>
<linearGradient id="paint106_linear" x1="393.407" y1="-5473.05" x2="557.787" y2="-5473.05" gradientUnits="userSpaceOnUse">
<stop stop-color="#282677"/>
</linearGradient>
<linearGradient id="paint107_linear" x1="1576.69" y1="-3549.8" x2="1759.39" y2="-3549.8" gradientUnits="userSpaceOnUse">
<stop stop-color="#282677"/>
</linearGradient>
<linearGradient id="paint108_linear" x1="1230.83" y1="-2492.64" x2="1368.46" y2="-2492.64" gradientUnits="userSpaceOnUse">
<stop stop-color="#5F48BE"/>
</linearGradient>
<linearGradient id="paint109_linear" x1="2398.89" y1="736.843" x2="2513.26" y2="736.843" gradientUnits="userSpaceOnUse">
<stop stop-color="#9F63D4"/>
</linearGradient>
<linearGradient id="paint110_linear" x1="1316.82" y1="3.41307" x2="1319.56" y2="3.41307" gradientUnits="userSpaceOnUse">
<stop stop-color="#9F63D4"/>
</linearGradient>
<linearGradient id="paint111_linear" x1="2197.75" y1="625.362" x2="2297.35" y2="625.362" gradientUnits="userSpaceOnUse">
<stop stop-color="#4B3CA7"/>
</linearGradient>
<linearGradient id="paint112_linear" x1="2212.67" y1="629.531" x2="2297.34" y2="629.531" gradientUnits="userSpaceOnUse">
<stop stop-color="#393190"/>
</linearGradient>
<linearGradient id="paint113_linear" x1="2251.91" y1="713.768" x2="2323.62" y2="713.768" gradientUnits="userSpaceOnUse">
<stop stop-color="#393190"/>
</linearGradient>
<linearGradient id="paint114_linear" x1="2314.8" y1="604.124" x2="2350.87" y2="604.124" gradientUnits="userSpaceOnUse">
<stop stop-color="#393190"/>
</linearGradient>
<linearGradient id="paint115_linear" x1="2637.31" y1="518.504" x2="2656.79" y2="518.504" gradientUnits="userSpaceOnUse">
<stop stop-color="#9F63D4"/>
</linearGradient>
<linearGradient id="paint116_linear" x1="1713.05" y1="-1432.96" x2="1759.41" y2="-1432.96" gradientUnits="userSpaceOnUse">
<stop stop-color="#282677"/>
</linearGradient>
<linearGradient id="paint117_linear" x1="2334.59" y1="520.929" x2="2354.97" y2="520.929" gradientUnits="userSpaceOnUse">
<stop stop-color="#393190"/>
</linearGradient>
<linearGradient id="paint118_linear" x1="2185.41" y1="738.134" x2="2258.85" y2="738.134" gradientUnits="userSpaceOnUse">
<stop stop-color="#4B3CA7"/>
</linearGradient>
<linearGradient id="paint119_linear" x1="2583.53" y1="729.169" x2="2622.33" y2="729.169" gradientUnits="userSpaceOnUse">
<stop stop-color="#9F63D4"/>
</linearGradient>
<linearGradient id="paint120_linear" x1="2010.7" y1="711.721" x2="2073.18" y2="711.721" gradientUnits="userSpaceOnUse">
<stop stop-color="#4B3CA7"/>
</linearGradient>
<linearGradient id="paint121_linear" x1="2010.69" y1="711.722" x2="2044.98" y2="711.722" gradientUnits="userSpaceOnUse">
<stop stop-color="#393190"/>
</linearGradient>
<clipPath id="clip0">
<rect width="1366" height="768" fill="white"/>
</clipPath>
</defs>
</svg>
