<svg width="122" height="122" viewBox="0 0 122 122" fill="none" xmlns="http://www.w3.org/2000/svg">
<g clip-path="url(#clip0)">
<path d="M122 -6.10352e-05H0V122H122V-6.10352e-05Z" fill="#2796DD"/>
<path d="M25.2355 25.4166L30.3401 97.6013L61 105.199L91.66 97.6013L96.7646 25.4166H25.2355ZM36.2399 36.4211H85.7601L84.9917 47.7641L61 58.4301H84.2717L82.2245 88.6924L61 94.1947L39.7756 88.6924L38.846 74.9368H48.9424L49.2111 80.1543L61 83.1902L72.789 80.1543L73.6219 69.4346H61H48.3782H38.4752L37.6854 57.7853L61 47.4256H36.9868L36.2399 36.4211Z" fill="#218BCD"/>
<path d="M26.6838 25.4166L31.5817 94.6781L61 101.968L90.4183 94.6781L95.3162 25.4166H26.6838ZM37.2426 35.9755H84.7573L84.0201 46.8591L61 57.0932H83.3292L81.3649 86.13L61 91.4094L40.635 86.13L39.7431 72.9314H49.4306L49.6884 77.9376L61 80.8506L72.3115 77.9376L73.1107 67.652H61H48.8893H39.3874L38.6295 56.4745L61 46.5343H37.9592L37.2426 35.9755Z" fill="#2181B9"/>
<path d="M27.9583 25.4166L32.6743 92.1056L61 99.125L89.3257 92.1056L94.0417 25.4166H27.9583ZM38.125 35.5833H83.875L83.1651 46.0627L61 55.9166H82.4999L80.6086 83.875L61 88.9583L41.3914 83.875L40.5326 71.1666H49.8604L50.1086 75.9869L61 78.7916L71.8914 75.9869L72.6609 66.0833H61H49.3391H40.1901L39.4604 55.3209L61 45.75H38.815L38.125 35.5833Z" fill="white"/>
</g>
<defs>
<clipPath id="clip0">
<rect width="122" height="122" fill="white"/>
</clipPath>
</defs>
</svg>
