<svg width="122" height="122" viewBox="0 0 122 122" fill="none" xmlns="http://www.w3.org/2000/svg">
<g clip-path="url(#clip0)">
<path d="M122 0H0V122H122V0Z" fill="#2B2B2B"/>
<path d="M47.2603 22.9792C43.6162 22.9792 40.1215 24.4268 37.5448 27.0035C34.9681 29.5802 33.5205 33.075 33.5205 36.719C33.5205 40.363 34.9681 43.8578 37.5448 46.4345C40.1215 49.0112 43.6162 50.4588 47.2603 50.4588C43.6162 50.4588 40.1215 51.9063 37.5448 54.483C34.9681 57.0597 33.5205 60.5545 33.5205 64.1985C33.5205 67.8425 34.9681 71.3373 37.5448 73.914C40.1215 76.4907 43.6162 77.9382 47.2603 77.9382C45.4559 77.9382 43.6693 78.2936 42.0023 78.9841C40.3353 79.6746 38.8206 80.6867 37.5448 81.9625C36.2689 83.2384 35.2569 84.753 34.5664 86.42C33.8759 88.087 33.5205 89.8737 33.5205 91.678C33.5205 95.322 34.9681 98.8168 37.5448 101.393C40.1215 103.97 43.6162 105.418 47.2603 105.418C50.9043 105.418 54.399 103.97 56.9757 101.393C59.5524 98.8168 61 95.322 61 91.678V77.9382V64.1985V50.4588H74.7398C78.3838 50.4588 81.8785 49.0112 84.4552 46.4345C87.0319 43.8578 88.4795 40.363 88.4795 36.719C88.4795 33.075 87.0319 29.5802 84.4552 27.0035C81.8785 24.4268 78.3838 22.9792 74.7398 22.9792H61H47.2603ZM74.7398 50.4588C71.0957 50.4588 67.601 51.9063 65.0243 54.483C62.4476 57.0597 61 60.5545 61 64.1985C61 67.8425 62.4476 71.3373 65.0243 73.914C67.601 76.4907 71.0957 77.9382 74.7398 77.9382C78.3838 77.9382 81.8785 76.4907 84.4552 73.914C87.0319 71.3373 88.4795 67.8425 88.4795 64.1985C88.4795 60.5545 87.0319 57.0597 84.4552 54.483C81.8785 51.9063 78.3838 50.4588 74.7398 50.4588Z" fill="#262626"/>
<path d="M47.9 22.9792C46.1796 22.9792 44.4762 23.3181 42.8868 23.9764C41.2974 24.6348 39.8533 25.5997 38.6368 26.8162C37.4204 28.0326 36.4554 29.4768 35.7971 31.0661C35.1387 32.6555 34.7999 34.359 34.7999 36.0793C34.7999 39.5537 36.1801 42.8857 38.6368 45.3424C41.0936 47.7992 44.4256 49.1794 47.9 49.1794C44.4256 49.1794 41.0936 50.5595 38.6368 53.0163C36.1801 55.473 34.7999 58.8051 34.7999 62.2794C34.7999 65.7538 36.1801 69.0858 38.6368 71.5426C41.0936 73.9993 44.4256 75.3795 47.9 75.3795C46.1796 75.3795 44.4762 75.7183 42.8868 76.3767C41.2974 77.035 39.8533 77.9999 38.6368 79.2164C37.4204 80.4328 36.4554 81.877 35.7971 83.4664C35.1387 85.0557 34.7999 86.7592 34.7999 88.4795C34.7999 91.9539 36.1801 95.2859 38.6368 97.7427C41.0936 100.199 44.4256 101.58 47.9 101.58C51.3743 101.58 54.7064 100.199 57.1631 97.7427C59.6198 95.2859 61 91.9539 61 88.4795V75.3795V62.2794V49.1794H74.1001C77.5744 49.1794 80.9065 47.7992 83.3632 45.3424C85.82 42.8857 87.2001 39.5537 87.2001 36.0793C87.2001 32.605 85.82 29.2729 83.3632 26.8162C80.9065 24.3594 77.5744 22.9792 74.1001 22.9792H61H47.9ZM74.1001 49.1794C70.6257 49.1794 67.2937 50.5595 64.8369 53.0163C62.3802 55.473 61 58.8051 61 62.2794C61 65.7538 62.3802 69.0858 64.8369 71.5426C67.2937 73.9993 70.6257 75.3795 74.1001 75.3795C77.5744 75.3795 80.9065 73.9993 83.3632 71.5426C85.82 69.0858 87.2001 65.7538 87.2001 62.2794C87.2001 58.8051 85.82 55.473 83.3632 53.0163C80.9065 50.5595 77.5744 49.1794 74.1001 49.1794Z" fill="#212121"/>
<path d="M48.2916 22.875C44.9212 22.875 41.6888 24.2139 39.3055 26.5972C36.9222 28.9805 35.5833 32.2129 35.5833 35.5833C35.5833 38.9538 36.9222 42.1862 39.3055 44.5695C41.6888 46.9528 44.9212 48.2917 48.2916 48.2917H61V35.5833V22.875H48.2916Z" fill="#F65309"/>
<path d="M48.2916 48.2916C44.9212 48.2916 41.6888 49.6305 39.3055 52.0138C36.9222 54.3971 35.5833 57.6295 35.5833 61C35.5833 64.3704 36.9222 67.6028 39.3055 69.9861C41.6888 72.3694 44.9212 73.7083 48.2916 73.7083H61V61V48.2916H48.2916Z" fill="#B34EDE"/>
<path d="M48.2916 73.7084C44.9212 73.7084 41.6888 75.0473 39.3055 77.4306C36.9222 79.8138 35.5833 83.0462 35.5833 86.4167C35.5833 89.7872 36.9222 93.0196 39.3055 95.4028C41.6888 97.7861 44.9212 99.125 48.2916 99.125C49.9605 99.125 51.6131 98.7963 53.1549 98.1577C54.6968 97.519 56.0977 96.5829 57.2778 95.4028C58.4579 94.2228 59.394 92.8218 60.0326 91.28C60.6713 89.7381 61 88.0856 61 86.4167V73.7084H48.2916Z" fill="#30E19A"/>
<path d="M73.7083 73.7082C80.727 73.7082 86.4167 68.0185 86.4167 60.9998C86.4167 53.9812 80.727 48.2915 73.7083 48.2915C66.6897 48.2915 61 53.9812 61 60.9998C61 68.0185 66.6897 73.7082 73.7083 73.7082Z" fill="#24B9DB"/>
<path d="M61 22.875V35.5833V48.2917H73.7083C77.0788 48.2917 80.3112 46.9528 82.6945 44.5695C85.0778 42.1862 86.4167 38.9538 86.4167 35.5833C86.4167 32.2129 85.0778 28.9805 82.6945 26.5972C80.3112 24.2139 77.0788 22.875 73.7083 22.875H61Z" fill="#F18453"/>
</g>
<defs>
<clipPath id="clip0">
<rect width="122" height="122" fill="white"/>
</clipPath>
</defs>
</svg>
