<svg width="122" height="122" viewBox="0 0 122 122" fill="none" xmlns="http://www.w3.org/2000/svg">
<g clip-path="url(#clip0)">
<path d="M122 0H0V122H122V0Z" fill="#F9F9F9"/>
<path d="M60.7613 20.2541C59.4132 20.2823 58.0838 20.5758 56.8492 21.1179C55.6145 21.66 54.4987 22.44 53.5656 23.4133V23.4241L18.5395 59.9948C17.9829 60.5767 17.5832 61.2904 17.378 62.0689C17.1728 62.8475 17.1687 63.6655 17.3661 64.4461C17.5635 65.2267 17.956 65.9443 18.5067 66.5317C19.0575 67.119 19.7484 67.5569 20.5147 67.8041L35.4067 72.5995C35.6353 72.6731 35.8372 72.8123 35.9873 72.9998C36.1375 73.1873 36.2291 73.4148 36.2509 73.654C36.2727 73.8932 36.2237 74.1336 36.1099 74.3451C35.9962 74.5566 35.8227 74.7301 35.6112 74.8438L28.8837 78.439C28.5455 78.6199 28.2672 78.8954 28.083 79.2318C27.8987 79.5682 27.8164 79.9509 27.8461 80.3333C27.8758 80.7157 28.0162 81.0812 28.2501 81.3852C28.4841 81.6891 28.8015 81.9184 29.1635 82.0449L47.4085 88.4226C47.7227 88.5325 48.0052 88.7175 48.2315 88.9616C48.4578 89.2056 48.6211 89.5013 48.707 89.8228C48.793 90.1443 48.799 90.482 48.7247 90.8064C48.6503 91.1308 48.4978 91.4321 48.2804 91.6841L45.1481 95.3223C44.8953 95.6155 44.7208 95.9678 44.6406 96.3465C44.5604 96.7252 44.5771 97.118 44.6894 97.4884C44.8016 97.8589 45.0056 98.195 45.2824 98.4655C45.5593 98.7361 45.9 98.9323 46.2729 99.0359L52.7744 100.828C53.4302 101.008 54.0314 101.348 54.5243 101.816C55.0173 102.285 55.3868 102.868 55.6 103.514L56.2297 105.424C56.4177 105.994 56.7187 106.519 57.1147 106.97C57.5107 107.42 57.9935 107.786 58.5342 108.045C59.075 108.305 59.6625 108.452 60.2615 108.479C60.8606 108.506 61.459 108.411 62.0207 108.201L72.5264 104.278C72.7644 104.19 72.9742 104.039 73.1338 103.842C73.2933 103.644 73.3967 103.408 73.4331 103.156C73.4694 102.905 73.4374 102.649 73.3404 102.414C73.2433 102.18 73.0848 101.976 72.8816 101.824L70.9764 100.392C70.6926 100.179 70.469 99.8957 70.3274 99.5702C70.1858 99.2447 70.131 98.888 70.1684 98.535C70.2058 98.182 70.3342 97.8448 70.5409 97.5562C70.7476 97.2676 71.0256 97.0375 71.3477 96.8885L84.7059 90.7207C85.2246 90.4823 85.6704 90.11 85.9974 89.642C86.3244 89.1741 86.5207 88.6274 86.5662 88.0583C86.6117 87.4893 86.5047 86.9184 86.2563 86.4044C86.0078 85.8904 85.6268 85.452 85.1526 85.1342L79.6576 81.4583C79.4104 81.2932 79.2129 81.0639 79.0864 80.795C78.9599 80.5261 78.9092 80.2277 78.9396 79.9321C78.9701 79.6365 79.0806 79.3547 79.2592 79.1173C79.4379 78.8798 79.678 78.6955 79.9536 78.5843L101.455 69.8116C102.366 69.4395 103.172 68.8501 103.803 68.0949C104.434 67.3396 104.871 66.4415 105.075 65.4787C105.28 64.5159 105.245 63.5178 104.975 62.5713C104.706 61.6249 104.208 60.7588 103.527 60.0487L68.3876 23.4133C67.4043 22.3876 66.2188 21.5772 64.906 21.0334C63.5933 20.4896 62.1819 20.2242 60.7613 20.2541ZM60.6537 23.3864C60.7649 23.3839 60.8762 23.3839 60.9874 23.3864C62.8967 23.42 64.7168 24.2006 66.0572 25.5608L79.2109 38.9135C79.4307 39.1368 79.6021 39.4032 79.7141 39.6958C79.8262 39.9885 79.8766 40.3012 79.8621 40.6142L79.7652 42.6432C79.7613 42.7256 79.7343 42.8053 79.6874 42.873C79.6404 42.9408 79.5753 42.994 79.4995 43.0266C79.4238 43.0591 79.3404 43.0697 79.2589 43.0571C79.1774 43.0445 79.101 43.0093 79.0386 42.9554L74.0387 38.6337C73.9521 38.5595 73.8472 38.51 73.735 38.4903C73.6227 38.4705 73.5072 38.4813 73.4005 38.5214C73.2939 38.5616 73.1999 38.6296 73.1285 38.7185C73.0571 38.8073 73.0109 38.9137 72.9946 39.0265L72.1443 45.0167C72.1304 45.1118 72.095 45.2024 72.0407 45.2817C71.9865 45.361 71.9148 45.4268 71.8311 45.4741C71.7475 45.5214 71.6541 45.5489 71.5582 45.5545C71.4623 45.5601 71.3664 45.5437 71.2778 45.5065L66.8968 43.6497C66.6175 43.532 66.3136 43.4842 66.0117 43.5104C65.7097 43.5367 65.4187 43.6362 65.1638 43.8004L59.7441 47.2879C59.5523 47.4123 59.3337 47.4893 59.1063 47.5129C58.8789 47.5364 58.6491 47.5056 58.4359 47.4232C58.2227 47.3407 58.032 47.2089 57.8796 47.0385C57.7272 46.8681 57.6173 46.664 57.559 46.4429L55.3632 38.16C55.3465 38.0971 55.3116 38.0405 55.2627 37.9974C55.2139 37.9543 55.1533 37.9267 55.0888 37.9181C55.0242 37.9094 54.9586 37.9201 54.9001 37.9488C54.8417 37.9775 54.793 38.023 54.7604 38.0793L51.2675 44.1986C51.1315 44.4382 50.9342 44.6373 50.6959 44.7754C50.4575 44.9135 50.1867 44.9856 49.9112 44.9844L42.9307 44.9306C42.7401 44.9288 42.5518 44.8887 42.377 44.8128C42.2022 44.7369 42.0443 44.6267 41.9128 44.4887C41.7814 44.3507 41.6789 44.1877 41.6115 44.0094C41.5442 43.831 41.5133 43.641 41.5207 43.4506L41.596 41.5238C41.6324 40.5887 42.0117 39.6998 42.6616 39.0266L55.6054 25.6146C56.9317 24.2398 58.7442 23.4398 60.6537 23.3864L60.6537 23.3864ZM44.7983 74.7792C44.8019 74.7792 44.8054 74.7792 44.809 74.7792C44.8289 74.7813 44.8487 74.7849 44.8682 74.7899V74.7845L62.7687 78.2613C62.9469 78.2959 63.1087 78.3885 63.2289 78.5246C63.349 78.6607 63.4208 78.8326 63.4331 79.0138C63.4454 79.1949 63.3975 79.375 63.2968 79.5261C63.1961 79.6771 63.0483 79.7907 62.8764 79.849L61.6385 80.2743C59.6622 80.9466 57.5092 80.8797 55.5784 80.086L44.6315 75.5867C44.5396 75.5507 44.4634 75.4834 44.4163 75.3966C44.3693 75.3099 44.3544 75.2093 44.3744 75.1126C44.3944 75.016 44.4479 74.9295 44.5255 74.8685C44.6031 74.8075 44.6997 74.7759 44.7984 74.7794L44.7983 74.7792ZM97.7519 83.7026C96.7567 83.7363 95.7886 84.0354 94.9478 84.5691L91.6272 86.6681C91.3679 86.8317 91.1685 87.0747 91.0585 87.3608C90.9486 87.647 90.9339 87.961 91.0168 88.2561C91.0996 88.5513 91.2756 88.8118 91.5184 88.9989C91.7612 89.1859 92.058 89.2896 92.3645 89.2945L101.282 89.4237V89.4183C101.682 89.4228 102.074 89.3055 102.405 89.0821C102.736 88.8586 102.992 88.5395 103.137 88.1672C103.283 87.795 103.311 87.3873 103.219 86.9983C103.128 86.6094 102.919 86.2577 102.623 85.99L101.659 85.1236C100.588 84.1648 99.1887 83.6558 97.7519 83.7028V83.7026ZM37.5864 91.3827C37.1471 91.4089 36.7187 91.5306 36.3313 91.7394C35.9438 91.9482 35.6066 92.239 35.3432 92.5916C35.0798 92.9442 34.8965 93.35 34.8062 93.7808C34.7158 94.2115 34.7205 94.6568 34.82 95.0855L34.8363 95.1662C34.9516 95.6646 35.189 96.1265 35.5274 96.5102C35.8657 96.8939 36.2942 97.1874 36.7742 97.3642C37.2543 97.5409 37.7708 97.5954 38.2771 97.5227C38.7835 97.45 39.2638 97.2524 39.6747 96.9477L43.5929 94.0468C43.7869 93.903 43.9328 93.7038 44.0116 93.4755C44.0903 93.2473 44.0982 93.0005 44.0342 92.7676C43.9701 92.5348 43.8372 92.3268 43.6528 92.1708C43.4684 92.0149 43.2411 91.9184 43.0009 91.894L38.071 91.3935C37.91 91.377 37.7481 91.3734 37.5866 91.3828L37.5864 91.3827ZM89.4367 92.0393C89.1552 92.0495 88.8813 92.1333 88.6423 92.2824C88.4033 92.4315 88.2076 92.6406 88.0747 92.889C87.9418 93.1373 87.8764 93.4162 87.8849 93.6977C87.8935 93.9793 87.9757 94.2537 88.1235 94.4935L88.6132 95.29C88.8166 95.7196 89.1245 96.0912 89.5088 96.3709C89.893 96.6506 90.3413 96.8295 90.8125 96.8911C91.2838 96.9526 91.763 96.895 92.2062 96.7234C92.6494 96.5518 93.0424 96.2718 93.3494 95.909C93.5867 95.5556 93.7264 95.1458 93.7544 94.721C93.7823 94.2963 93.6974 93.8717 93.5083 93.4903C93.3193 93.1089 93.0328 92.7843 92.6778 92.5493C92.3229 92.3144 91.9121 92.1774 91.4872 92.1523L89.5874 92.0393C89.5372 92.0369 89.4869 92.0369 89.4367 92.0393V92.0393Z" fill="#EBEBEB"/>
<path d="M60.7812 20.254C59.4923 20.281 58.2213 20.5616 57.0408 21.0799C55.8603 21.5982 54.7935 22.3439 53.9013 23.2745V23.2848L20.4129 58.2501C19.8807 58.8064 19.4986 59.4888 19.3024 60.2332C19.1061 60.9776 19.1022 61.7596 19.291 62.506C19.4798 63.2523 19.855 63.9384 20.3816 64.5C20.9081 65.0616 21.5687 65.4802 22.3013 65.7166L36.5396 70.3015C36.7582 70.3719 36.9513 70.505 37.0948 70.6842C37.2383 70.8635 37.3259 71.081 37.3468 71.3097C37.3676 71.5384 37.3207 71.7682 37.212 71.9704C37.1032 72.1727 36.9374 72.3385 36.7351 72.4472L30.303 75.8846C29.9796 76.0576 29.7136 76.3209 29.5374 76.6426C29.3613 76.9642 29.2826 77.3302 29.3109 77.6958C29.3393 78.0614 29.4735 78.4109 29.6972 78.7015C29.9209 78.9921 30.2244 79.2113 30.5705 79.3323L48.0146 85.43C48.315 85.535 48.5851 85.7119 48.8014 85.9453C49.0178 86.1786 49.1739 86.4613 49.2561 86.7687C49.3382 87.0761 49.344 87.3989 49.273 87.7091C49.2019 88.0192 49.0561 88.3073 48.8482 88.5483L45.8534 92.0268C45.6117 92.3071 45.4448 92.6439 45.3681 93.006C45.2914 93.368 45.3075 93.7436 45.4148 94.0978C45.5221 94.452 45.7171 94.7734 45.9818 95.032C46.2465 95.2907 46.5723 95.4783 46.9288 95.5774L53.1449 97.2909C53.7719 97.4631 54.3467 97.7877 54.818 98.2356C55.2893 98.6836 55.6426 99.2411 55.8464 99.8586L56.4485 101.685C56.6282 102.23 56.916 102.732 57.2947 103.163C57.6733 103.593 58.1349 103.943 58.6519 104.191C59.1689 104.439 59.7306 104.58 60.3033 104.606C60.8761 104.631 61.4482 104.541 61.9853 104.341L72.0298 100.589C72.2573 100.505 72.4579 100.361 72.6105 100.172C72.763 99.9835 72.8619 99.7571 72.8967 99.517C72.9314 99.2768 72.9008 99.0317 72.808 98.8075C72.7152 98.5833 72.5637 98.3882 72.3694 98.2428L70.5478 96.8741C70.2765 96.6702 70.0627 96.3994 69.9273 96.0882C69.7919 95.777 69.7396 95.4359 69.7753 95.0984C69.8111 94.7609 69.9338 94.4385 70.1314 94.1626C70.329 93.8867 70.5948 93.6667 70.9029 93.5242L83.6746 87.6272C84.1705 87.3992 84.5968 87.0433 84.9094 86.5958C85.222 86.1484 85.4098 85.6258 85.4533 85.0817C85.4968 84.5376 85.3945 83.9918 85.1569 83.5004C84.9193 83.009 84.5551 82.5897 84.1017 82.2859L78.8479 78.7714C78.6116 78.6136 78.4228 78.3943 78.3018 78.1372C78.1809 77.8801 78.1324 77.5948 78.1615 77.3122C78.1906 77.0295 78.2962 76.7602 78.4671 76.5331C78.6379 76.306 78.8674 76.1299 79.1309 76.0235L99.6881 67.636C100.559 67.2802 101.33 66.7167 101.934 65.9946C102.537 65.2725 102.955 64.4138 103.15 63.4933C103.345 62.5728 103.312 61.6185 103.054 60.7135C102.796 59.8086 102.321 58.9806 101.669 58.3016L68.0727 23.2745C67.1325 22.2939 65.999 21.519 64.7439 20.9991C63.4888 20.4792 62.1394 20.2254 60.7812 20.254ZM60.6783 23.2488C60.7846 23.2464 60.891 23.2464 60.9973 23.2488C62.8228 23.2809 64.5631 24.0273 65.8446 25.3277L78.4208 38.0943C78.631 38.3078 78.7948 38.5624 78.902 38.8423C79.0091 39.1221 79.0573 39.421 79.0434 39.7203L78.9508 41.6603C78.9471 41.739 78.9213 41.8152 78.8764 41.88C78.8315 41.9448 78.7692 41.9957 78.6968 42.0268C78.6244 42.0579 78.5446 42.068 78.4667 42.056C78.3888 42.044 78.3158 42.0103 78.2561 41.9587L73.4757 37.8267C73.3929 37.7558 73.2926 37.7085 73.1853 37.6896C73.078 37.6707 72.9676 37.681 72.8656 37.7194C72.7636 37.7578 72.6737 37.8229 72.6055 37.9078C72.5372 37.9928 72.493 38.0945 72.4775 38.2023L71.6644 43.9296C71.6512 44.0205 71.6174 44.1071 71.5655 44.1829C71.5136 44.2587 71.445 44.3216 71.365 44.3668C71.2851 44.412 71.1958 44.4383 71.1041 44.4437C71.0124 44.4491 70.9207 44.4334 70.836 44.3978L66.6473 42.6225C66.3803 42.51 66.0898 42.4643 65.801 42.4894C65.5123 42.5145 65.2341 42.6097 64.9904 42.7666L59.8087 46.101C59.6252 46.2199 59.4162 46.2936 59.1988 46.3161C58.9814 46.3386 58.7617 46.3092 58.5578 46.2304C58.354 46.1515 58.1717 46.0255 58.026 45.8626C57.8802 45.6997 57.7752 45.5045 57.7195 45.2932L55.62 37.3739C55.6041 37.3137 55.5707 37.2596 55.524 37.2184C55.4773 37.1772 55.4194 37.1508 55.3577 37.1425C55.296 37.1343 55.2332 37.1445 55.1773 37.1719C55.1214 37.1994 55.0749 37.2428 55.0437 37.2967L51.7041 43.1474C51.5741 43.3765 51.3855 43.5668 51.1576 43.6988C50.9297 43.8309 50.6708 43.8998 50.4074 43.8987L43.7334 43.8472C43.5511 43.8455 43.3711 43.8072 43.2039 43.7346C43.0368 43.662 42.8859 43.5566 42.7601 43.4247C42.6344 43.2927 42.5365 43.1369 42.4721 42.9664C42.4077 42.7959 42.3781 42.6143 42.3852 42.4321L42.4572 40.59C42.492 39.696 42.8547 38.846 43.4761 38.2023L55.8516 25.3792C57.1197 24.0647 58.8526 23.2999 60.6783 23.2488L60.6783 23.2488ZM45.5189 72.3855C45.5223 72.3855 45.5257 72.3855 45.5291 72.3855C45.5482 72.3875 45.5671 72.3909 45.5857 72.3957V72.3906L62.7004 75.7147C62.8708 75.7478 63.0255 75.8363 63.1404 75.9664C63.2553 76.0965 63.3239 76.261 63.3357 76.4342C63.3474 76.6073 63.3016 76.7795 63.2053 76.924C63.109 77.0684 62.9677 77.1769 62.8033 77.2327L61.6199 77.6394C59.7302 78.2821 57.6717 78.218 55.8256 77.4591L45.3593 73.1573C45.2714 73.1229 45.1986 73.0586 45.1536 72.9756C45.1086 72.8927 45.0944 72.7965 45.1135 72.7041C45.1326 72.6117 45.1837 72.529 45.2579 72.4707C45.3321 72.4124 45.4245 72.3822 45.5188 72.3854L45.5189 72.3855ZM96.1479 80.9171C95.1964 80.9493 94.2708 81.2354 93.4669 81.7456L90.292 83.7524C90.0442 83.9089 89.8535 84.1412 89.7484 84.4148C89.6432 84.6884 89.6292 84.9886 89.7084 85.2708C89.7876 85.553 89.9559 85.802 90.188 85.9809C90.4202 86.1598 90.7039 86.2589 90.997 86.2636L99.5235 86.3871V86.382C99.9056 86.3863 100.28 86.2742 100.597 86.0605C100.914 85.8468 101.158 85.5417 101.297 85.1858C101.436 84.8299 101.463 84.4401 101.375 84.0682C101.288 83.6964 101.089 83.3601 100.805 83.1041L99.8837 82.2758C98.8597 81.359 97.5216 80.8724 96.1479 80.9173V80.9171ZM38.6236 88.2601C38.2036 88.2851 37.794 88.4015 37.4236 88.6011C37.0532 88.8008 36.7308 89.0788 36.4789 89.4159C36.2271 89.7531 36.0518 90.1411 35.9654 90.5529C35.879 90.9647 35.8836 91.3905 35.9787 91.8004L35.9945 91.8776C36.1047 92.3541 36.3317 92.7957 36.6552 93.1626C36.9787 93.5294 37.3883 93.81 37.8473 93.979C38.3063 94.148 38.8001 94.2001 39.2843 94.1306C39.7684 94.061 40.2276 93.8721 40.6205 93.5808L44.3666 90.8073C44.5521 90.6697 44.6916 90.4793 44.7669 90.261C44.8422 90.0428 44.8497 89.8068 44.7885 89.5842C44.7273 89.3616 44.6001 89.1627 44.4238 89.0136C44.2475 88.8645 44.0302 88.7723 43.8005 88.749L39.087 88.2704C38.9331 88.2546 38.7783 88.2512 38.6239 88.2602L38.6236 88.2601ZM88.1977 88.8879C87.9286 88.8976 87.6667 88.9777 87.4382 89.1203C87.2097 89.2628 87.0226 89.4628 86.8956 89.7003C86.7685 89.9377 86.7059 90.2043 86.7141 90.4735C86.7223 90.7427 86.8009 91.005 86.9421 91.2343L87.4104 91.9959C87.6049 92.4066 87.8993 92.7619 88.2666 93.0294C88.634 93.2968 89.0626 93.4678 89.5132 93.5266C89.9637 93.5855 90.4219 93.5304 90.8456 93.3664C91.2694 93.2023 91.6452 92.9346 91.9387 92.5877C92.1656 92.2498 92.2992 91.858 92.3258 91.4519C92.3525 91.0458 92.2714 90.6398 92.0906 90.2752C91.9099 89.9106 91.6359 89.6002 91.2966 89.3755C90.9572 89.1509 90.5645 89.0199 90.1582 88.9959L88.3418 88.8879C88.2938 88.8856 88.2457 88.8856 88.1977 88.8879L88.1977 88.8879Z" fill="#D6D6D6"/>
<path d="M60.7965 20.2539C59.553 20.2799 58.3268 20.5507 57.188 21.0507C56.0492 21.5507 55.0201 22.2701 54.1593 23.1679V23.1778L21.8524 56.9095C21.339 57.4462 20.9704 58.1045 20.7811 58.8226C20.5917 59.5407 20.588 60.2952 20.7701 61.0152C20.9522 61.7352 21.3142 62.3971 21.8222 62.9389C22.3302 63.4807 22.9674 63.8845 23.6742 64.1126L37.4101 68.5357C37.621 68.6036 37.8073 68.732 37.9457 68.9049C38.0842 69.0779 38.1687 69.2877 38.1888 69.5083C38.2089 69.729 38.1637 69.9506 38.0588 70.1457C37.9539 70.3409 37.7939 70.5008 37.5988 70.6057L31.3935 73.9218C31.0816 74.0887 30.825 74.3428 30.655 74.653C30.4851 74.9633 30.4092 75.3164 30.4365 75.6691C30.4639 76.0218 30.5934 76.3589 30.8092 76.6393C31.025 76.9196 31.3177 77.1311 31.6517 77.2478L48.4803 83.1304C48.7701 83.2318 49.0306 83.4024 49.2394 83.6275C49.4481 83.8526 49.5987 84.1253 49.678 84.4219C49.7572 84.7184 49.7628 85.0299 49.6943 85.3291C49.6257 85.6283 49.485 85.9062 49.2845 86.1387L46.3953 89.4945C46.1622 89.7649 46.0012 90.0898 45.9272 90.4391C45.8532 90.7884 45.8687 91.1507 45.9722 91.4924C46.0757 91.8341 46.2639 92.1441 46.5192 92.3937C46.7746 92.6432 47.0889 92.8242 47.4329 92.9198L53.4296 94.5729C54.0345 94.739 54.589 95.0521 55.0437 95.4843C55.4983 95.9164 55.8392 96.4543 56.0358 97.05L56.6166 98.8123C56.79 99.3375 57.0677 99.8223 57.4329 100.238C57.7982 100.653 58.2435 100.99 58.7423 101.23C59.241 101.469 59.7829 101.605 60.3355 101.63C60.8881 101.654 61.4399 101.567 61.9581 101.374L71.6482 97.7549C71.8677 97.6736 72.0612 97.5346 72.2084 97.3525C72.3556 97.1704 72.451 96.9521 72.4845 96.7204C72.518 96.4887 72.4885 96.2523 72.399 96.0359C72.3095 95.8196 72.1633 95.6315 71.9758 95.4912L70.2185 94.1708C69.9568 93.974 69.7505 93.7128 69.6199 93.4126C69.4893 93.1123 69.4388 92.7834 69.4733 92.4578C69.5078 92.1322 69.6262 91.8211 69.8168 91.5549C70.0075 91.2887 70.2639 91.0765 70.561 90.9391L82.8822 85.2501C83.3606 85.0302 83.7718 84.6868 84.0734 84.2551C84.375 83.8235 84.5561 83.3193 84.5981 82.7944C84.6401 82.2695 84.5414 81.7429 84.3122 81.2689C84.083 80.7948 83.7316 80.3904 83.2942 80.0973L78.2258 76.7067C77.9978 76.5545 77.8157 76.343 77.699 76.0949C77.5823 75.8469 77.5355 75.5717 77.5636 75.299C77.5917 75.0263 77.6936 74.7665 77.8584 74.5474C78.0232 74.3284 78.2446 74.1584 78.4988 74.0558L98.3307 65.9642C99.1711 65.621 99.9148 65.0773 100.497 64.3807C101.079 63.6841 101.482 62.8557 101.67 61.9677C101.859 61.0796 101.827 60.159 101.578 59.286C101.329 58.413 100.87 57.6142 100.242 56.9592L67.8307 23.1679C66.9237 22.2218 65.8302 21.4743 64.6194 20.9727C63.4086 20.4711 62.1068 20.2264 60.7965 20.2539ZM60.6972 23.1431C60.7998 23.1407 60.9024 23.1407 61.005 23.1431C62.7661 23.174 64.4449 23.894 65.6812 25.1486L77.8137 37.4648C78.0165 37.6708 78.1746 37.9164 78.2779 38.1864C78.3813 38.4563 78.4278 38.7447 78.4144 39.0335L78.325 40.905C78.3215 40.9809 78.2966 41.0544 78.2533 41.1169C78.2099 41.1794 78.1499 41.2285 78.08 41.2585C78.0101 41.2886 77.9332 41.2983 77.858 41.2867C77.7828 41.2751 77.7124 41.2426 77.6549 41.1929L73.0431 37.2066C72.9633 37.1383 72.8665 37.0926 72.763 37.0744C72.6594 37.0562 72.5529 37.0661 72.4545 37.1031C72.3561 37.1402 72.2694 37.2029 72.2036 37.2849C72.1377 37.3668 72.0951 37.465 72.0801 37.569L71.2957 43.0942C71.283 43.1819 71.2503 43.2655 71.2003 43.3386C71.1502 43.4117 71.084 43.4724 71.0069 43.516C70.9297 43.5596 70.8436 43.585 70.7552 43.5902C70.6667 43.5954 70.5782 43.5802 70.4965 43.5459L66.4556 41.8333C66.198 41.7247 65.9177 41.6806 65.6392 41.7048C65.3607 41.7291 65.0922 41.8209 64.8572 41.9723L59.8582 45.1891C59.6813 45.3038 59.4796 45.3749 59.2699 45.3965C59.0601 45.4182 58.8482 45.3899 58.6516 45.3138C58.4549 45.2378 58.279 45.1162 58.1384 44.959C57.9978 44.8019 57.8965 44.6136 57.8428 44.4097L55.8174 36.7698C55.802 36.7117 55.7698 36.6595 55.7247 36.6198C55.6797 36.5801 55.6238 36.5546 55.5643 36.5466C55.5047 36.5387 55.4442 36.5485 55.3903 36.575C55.3363 36.6015 55.2915 36.6433 55.2614 36.6953L52.0396 42.3396C51.9142 42.5606 51.7322 42.7442 51.5124 42.8716C51.2925 42.999 51.0427 43.0655 50.7886 43.0644L44.3501 43.0147C44.1743 43.0131 44.0006 42.9761 43.8393 42.9061C43.6781 42.8361 43.5325 42.7344 43.4112 42.6071C43.2899 42.4798 43.1954 42.3295 43.1333 42.165C43.0712 42.0005 43.0427 41.8253 43.0495 41.6496L43.119 39.8724C43.1525 39.0099 43.5024 38.19 44.1019 37.569L56.0408 25.1983C57.2641 23.9302 58.9359 23.1923 60.6972 23.1431H60.6972ZM46.0727 70.5462C46.076 70.5461 46.0793 70.5461 46.0826 70.5462C46.101 70.5481 46.1192 70.5515 46.1372 70.5561V70.551L62.6481 73.7579C62.8125 73.7898 62.9617 73.8751 63.0725 74.0007C63.1833 74.1262 63.2496 74.2848 63.2609 74.4519C63.2722 74.619 63.228 74.7851 63.1351 74.9244C63.0423 75.0638 62.9059 75.1685 62.7474 75.2223L61.6056 75.6146C59.7827 76.2347 57.7968 76.1729 56.0159 75.4409L45.9188 71.2908C45.834 71.2576 45.7637 71.1955 45.7203 71.1155C45.6769 71.0355 45.6632 70.9427 45.6816 70.8535C45.7 70.7644 45.7494 70.6847 45.821 70.6284C45.8925 70.5721 45.9817 70.543 46.0727 70.5462L46.0727 70.5462ZM94.9154 78.7768C93.9974 78.8079 93.1045 79.0838 92.329 79.576L89.2661 81.5121C89.027 81.663 88.8431 81.8871 88.7416 82.1511C88.6402 82.415 88.6267 82.7046 88.7031 82.9768C88.7795 83.2491 88.9418 83.4893 89.1658 83.6619C89.3898 83.8345 89.6635 83.9301 89.9462 83.9346L98.1719 84.0537V84.0486C98.5405 84.0528 98.9016 83.9446 99.2072 83.7385C99.5129 83.5323 99.7485 83.238 99.8827 82.8947C100.017 82.5513 100.043 82.1753 99.9585 81.8165C99.8737 81.4578 99.6817 81.1334 99.408 80.8864L98.5194 80.0873C97.5315 79.2029 96.2406 78.7335 94.9154 78.7768ZM39.4206 85.8607C39.0154 85.8848 38.6203 85.9971 38.263 86.1897C37.9056 86.3823 37.5946 86.6505 37.3516 86.9758C37.1086 87.301 36.9396 87.6753 36.8562 88.0726C36.7729 88.4699 36.7773 88.8806 36.8691 89.2761L36.884 89.3505C36.9903 89.8102 37.2094 90.2363 37.5214 90.5902C37.8335 90.9441 38.2287 91.2148 38.6715 91.3778C39.1143 91.5408 39.5907 91.5911 40.0578 91.524C40.5248 91.457 40.9678 91.2747 41.3469 90.9937L44.9608 88.318C45.1397 88.1853 45.2743 88.0016 45.347 87.7911C45.4196 87.5805 45.4269 87.3529 45.3678 87.1381C45.3087 86.9233 45.1861 86.7315 45.016 86.5877C44.8459 86.4438 44.6363 86.3548 44.4147 86.3323L39.8675 85.8706C39.7191 85.8554 39.5697 85.8521 39.4207 85.8607L39.4206 85.8607ZM87.2457 86.4663C86.9861 86.4757 86.7334 86.553 86.513 86.6905C86.2926 86.828 86.1121 87.021 85.9895 87.25C85.8669 87.4791 85.8065 87.7363 85.8144 87.996C85.8223 88.2557 85.8982 88.5088 86.0344 88.73L86.4862 89.4647C86.6738 89.8609 86.9578 90.2037 87.3122 90.4617C87.6666 90.7197 88.0801 90.8846 88.5147 90.9414C88.9494 90.9982 89.3914 90.9451 89.8002 90.7868C90.209 90.6285 90.5715 90.3703 90.8547 90.0356C91.0736 89.7096 91.2024 89.3316 91.2282 88.9399C91.2539 88.5481 91.1757 88.1565 91.0013 87.8047C90.8269 87.4529 90.5626 87.1535 90.2352 86.9368C89.9079 86.72 89.529 86.5937 89.137 86.5706L87.3847 86.4663C87.3384 86.4641 87.292 86.4641 87.2457 86.4663L87.2457 86.4663Z" fill="#1A1A1A"/>
</g>
<defs>
<clipPath id="clip0">
<rect width="122" height="122" fill="white"/>
</clipPath>
</defs>
</svg>
