<svg width="122" height="122" viewBox="0 0 122 122" fill="none" xmlns="http://www.w3.org/2000/svg">
<g clip-path="url(#clip0)">
<path d="M122 -6.10352e-05H0V122H122V-6.10352e-05Z" fill="#35D0FF"/>
<path d="M43.564 24.5889C41.9851 24.6731 40.4629 25.0798 39.0792 25.8787C36.3118 27.4765 34.6349 30.3426 33.8559 33.612C33.0769 36.8814 33.0845 40.6751 33.69 44.8775C33.857 46.0366 34.078 47.2344 34.3376 48.4524C33.1529 48.8365 32.0051 49.2377 30.9178 49.6726C26.9757 51.2495 23.6891 53.1432 21.2471 55.4525C18.8052 57.7619 17.1583 60.6486 17.1584 63.8441C17.1585 67.0396 18.8052 69.9264 21.2471 72.2357C23.6891 74.545 26.9757 76.4388 30.9178 78.0156C32.0051 78.4505 33.1529 78.8517 34.3376 79.2358C34.078 80.4538 33.857 81.6516 33.69 82.8107C33.0845 87.0131 33.0769 90.8068 33.8559 94.0762C34.6349 97.3456 36.3118 100.212 39.0792 101.81C41.8466 103.407 45.1704 103.428 48.3913 102.468C51.6122 101.508 54.8966 99.6024 58.2332 96.9769C59.1523 96.2536 60.0763 95.4653 61 94.6328C61.9238 95.4653 62.8478 96.2536 63.7669 96.9769C67.1035 99.6024 70.3879 101.508 73.6088 102.468C76.8297 103.428 80.1535 103.407 82.9209 101.81C85.6882 100.212 87.3652 97.3456 88.1442 94.0762C88.9231 90.8068 88.9155 87.0131 88.3101 82.8107C88.1431 81.6516 87.9221 80.4538 87.6625 79.2358C88.8472 78.8517 89.995 78.4505 91.0823 78.0156C95.0243 76.4388 98.311 74.545 100.753 72.2357C103.195 69.9264 104.842 67.0396 104.842 63.8441C104.842 60.6486 103.195 57.7619 100.753 55.4525C98.311 53.1432 95.0244 51.2495 91.0823 49.6726C89.995 49.2377 88.8472 48.8365 87.6625 48.4524C87.9221 47.2344 88.1431 46.0366 88.3101 44.8775C88.9155 40.6751 88.9231 36.8814 88.1442 33.612C87.3652 30.3426 85.6882 27.4764 82.9209 25.8787C81.5372 25.0798 80.015 24.6731 78.4361 24.5889C76.8572 24.5048 75.2192 24.7404 73.6088 25.2204C70.3879 26.1805 67.1035 28.0805 63.7669 30.706C62.8478 31.4292 61.9238 32.2173 61 33.0501C60.0763 32.2173 59.1523 31.4292 58.2332 30.706C54.8966 28.0805 51.6122 26.1805 48.3913 25.2204C46.7808 24.7404 45.1429 24.5048 43.564 24.5889ZM43.9065 30.0424C44.7287 30.0045 45.6903 30.1328 46.8232 30.4705C49.089 31.1459 51.8812 32.6858 54.8402 35.0142C55.5799 35.5962 56.3362 36.2324 57.0932 36.9087C54.7671 39.3834 52.4691 42.17 50.2483 45.2307C46.4901 45.6238 42.9291 46.22 39.6251 46.9968C39.417 45.9995 39.246 45.0308 39.1113 44.0961C38.5744 40.3694 38.6383 37.1802 39.1862 34.8804C39.7342 32.5805 40.655 31.2926 41.8193 30.6204C42.4014 30.2843 43.0843 30.0802 43.9065 30.0424H43.9065ZM78.0936 30.0424C78.9158 30.0802 79.5986 30.2843 80.1808 30.6204C81.345 31.2926 82.2658 32.5805 82.8138 34.8804C83.3618 37.1802 83.4257 40.3694 82.8887 44.0961C82.754 45.0308 82.583 45.9995 82.3749 46.9968C79.0709 46.22 75.5099 45.6238 71.7517 45.2307C69.531 42.17 67.2329 39.3834 64.9068 36.9087L64.9121 36.9033C65.6692 36.2271 66.4202 35.5963 67.1599 35.0142C70.1188 32.6858 72.9111 31.1459 75.1768 30.4705C76.3097 30.1328 77.2713 30.0045 78.0935 30.0424L78.0936 30.0424ZM61 40.7673C62.1531 42.0012 63.3042 43.3213 64.4519 44.733C63.3104 44.6964 62.165 44.6634 61 44.6634C59.8351 44.6634 58.6897 44.6964 57.5481 44.733C58.6958 43.3212 59.8469 42.0012 61 40.7673V40.7673ZM61 50.1436C63.6497 50.1436 66.2319 50.2509 68.7333 50.4486C70.1555 52.5162 71.5401 54.6993 72.8649 56.9938C74.1896 59.2883 75.387 61.5788 76.4666 63.8441C75.387 66.1094 74.1896 68.3999 72.8649 70.6944C71.5401 72.9889 70.1555 75.172 68.7333 77.2396C66.2319 77.4372 63.6497 77.5446 61 77.5446C58.3504 77.5446 55.7682 77.4373 53.2667 77.2396C51.8446 75.172 50.4599 72.9889 49.1352 70.6944C47.8104 68.3999 46.6131 66.1094 45.5334 63.8441C46.6131 61.5788 47.8104 59.2883 49.1352 56.9938C50.4599 54.6993 51.8446 52.5162 53.2667 50.4486C55.7682 50.2509 58.3504 50.1436 61 50.1436ZM46.1757 51.2996C45.5732 52.2699 44.9706 53.2448 44.3882 54.2537C43.8058 55.2624 43.2627 56.2708 42.7238 57.2775C42.0744 55.5767 41.5089 53.9222 41.0165 52.3057C42.6611 51.9242 44.3798 51.5875 46.1757 51.2996ZM75.8244 51.2996C77.6202 51.5875 79.3389 51.9242 80.9835 52.3057C80.4911 53.9222 79.9256 55.5767 79.2763 57.2775C78.7374 56.2708 78.1943 55.2624 77.6119 54.2537C77.0294 53.2448 76.4268 52.2699 75.8244 51.2996ZM35.7183 53.7614H35.7236C36.7026 57.012 37.9688 60.392 39.5073 63.8441C37.9688 67.2962 36.7026 70.6762 35.7236 73.9268H35.7183C34.7542 73.6094 33.8308 73.2756 32.9568 72.926C29.461 71.5277 26.7272 69.8784 25.0094 68.254C23.2916 66.6295 22.6386 65.1885 22.6386 63.8441C22.6386 62.4997 23.2917 61.0588 25.0094 59.4342C26.7272 57.8097 29.4609 56.1605 32.9568 54.7622C33.8308 54.4126 34.7542 54.0788 35.7183 53.7614ZM86.2764 53.7614H86.2817C87.2458 54.0788 88.1693 54.4126 89.0433 54.7622C92.5391 56.1605 95.2729 57.8097 96.9906 59.4342C98.7084 61.0588 99.3615 62.4997 99.3615 63.8441C99.3614 65.1885 98.7084 66.6295 96.9906 68.254C95.2728 69.8784 92.5391 71.5277 89.0433 72.926C88.1693 73.2756 87.2405 73.6094 86.2764 73.9268C85.2975 70.6762 84.0312 67.2962 82.4927 63.8441C84.0312 60.392 85.2975 57.012 86.2764 53.7614H86.2764ZM61 58.3639C59.5466 58.3639 58.1527 58.9413 57.1249 59.969C56.0972 60.9967 55.5198 62.3907 55.5198 63.8441C55.5198 65.2975 56.0972 66.6915 57.1249 67.7192C58.1527 68.7469 59.5466 69.3243 61 69.3243C62.4535 69.3243 63.8474 68.7469 64.8751 67.7192C65.9029 66.6915 66.4802 65.2975 66.4802 63.8441C66.4802 62.3907 65.9029 60.9967 64.8751 59.969C63.8474 58.9413 62.4535 58.3639 61 58.3639ZM42.7238 70.4107C43.2627 71.4174 43.8058 72.4258 44.3882 73.4345C44.9706 74.4434 45.5732 75.4184 46.1757 76.3886C44.3798 76.1007 42.6611 75.764 41.0165 75.3825C41.5089 73.766 42.0744 72.1115 42.7238 70.4107ZM79.2763 70.4107C79.9256 72.1115 80.4911 73.766 80.9835 75.3825C79.3389 75.764 77.6202 76.1007 75.8244 76.3886C76.4268 75.4184 77.0294 74.4434 77.6119 73.4345C78.1943 72.4258 78.7374 71.4174 79.2763 70.4107ZM39.6251 80.6915C42.9307 81.4686 46.4935 82.0644 50.2537 82.4575C52.4739 85.5161 54.7677 88.3065 57.0932 90.7795L57.0879 90.7849C56.3308 91.4611 55.5799 92.0919 54.8402 92.674C51.8813 95.0024 49.089 96.5423 46.8232 97.2177C44.5575 97.8931 42.9836 97.74 41.8193 97.0678C40.655 96.3956 39.7342 95.1077 39.1863 92.8078C38.6383 90.5079 38.5744 87.3187 39.1114 83.5921C39.246 82.6573 39.417 81.6886 39.6251 80.6914L39.6251 80.6915ZM82.375 80.6915C82.5831 81.6887 82.7541 82.6574 82.8887 83.5921C83.4257 87.3188 83.3618 90.5079 82.8138 92.8078C82.2659 95.1077 81.3451 96.3956 80.1808 97.0678C79.0165 97.74 77.4426 97.8931 75.1769 97.2177C72.9111 96.5423 70.1188 95.0024 67.1599 92.674C66.4202 92.092 65.6639 91.4558 64.9068 90.7795C67.2323 88.3065 69.5262 85.5161 71.7464 82.4575C75.5065 82.0644 79.0694 81.4686 82.375 80.6915L82.375 80.6915ZM57.5481 82.9552C58.6896 82.9918 59.8351 83.0248 61 83.0248C62.165 83.0248 63.3104 82.9918 64.4519 82.9552C63.3042 84.367 62.1531 85.687 61 86.9209C59.8469 85.687 58.6958 84.367 57.5481 82.9552Z" fill="#00C7FA"/>
<path d="M44.1439 24.5884C42.6175 24.6697 41.1459 25.0629 39.8082 25.8352C37.1329 27.3799 35.5117 30.1506 34.7587 33.3113C34.0056 36.472 34.0129 40.1395 34.5983 44.2021C34.7597 45.3227 34.9734 46.4806 35.2243 47.6582C34.079 48.0295 32.9694 48.4173 31.9183 48.8378C28.1073 50.3622 24.93 52.1929 22.5693 54.4255C20.2086 56.658 18.6164 59.4487 18.6165 62.5379C18.6166 65.6271 20.2085 68.4179 22.5693 70.6504C24.93 72.8829 28.1073 74.7137 31.9183 76.2381C32.9694 76.6585 34.079 77.0464 35.2243 77.4177C34.9734 78.5953 34.7597 79.7532 34.5983 80.8738C34.0129 84.9363 34.0056 88.6039 34.7587 91.7645C35.5117 94.9252 37.1329 97.696 39.8082 99.2406C42.4836 100.785 45.6968 100.805 48.8106 99.877C51.9244 98.9488 55.0995 97.1069 58.3252 94.5687C59.2137 93.8695 60.107 93.1075 61 92.3026C61.893 93.1075 62.7863 93.8695 63.6748 94.5687C66.9005 97.1069 70.0756 98.9488 73.1894 99.877C76.3032 100.805 79.5164 100.785 82.1918 99.2406C84.8671 97.696 86.4883 94.9252 87.2414 91.7645C87.9944 88.6039 87.9871 84.9363 87.4017 80.8738C87.2403 79.7532 87.0266 78.5953 86.7757 77.4177C87.921 77.0464 89.0306 76.6585 90.0817 76.2381C93.8927 74.7137 97.07 72.8829 99.4307 70.6504C101.791 68.4179 103.383 65.6271 103.383 62.5379C103.384 59.4487 101.791 56.658 99.4307 54.4255C97.0701 52.1929 93.8927 50.3622 90.0817 48.8378C89.0306 48.4173 87.921 48.0295 86.7757 47.6582C87.0266 46.4806 87.2403 45.3227 87.4017 44.2021C87.9871 40.1395 87.9944 36.472 87.2414 33.3113C86.4883 30.1506 84.8671 27.3799 82.1918 25.8352C80.8541 25.0629 79.3825 24.6697 77.8561 24.5884C76.3297 24.507 74.7463 24.7348 73.1894 25.1989C70.0756 26.1271 66.9005 27.9638 63.6748 30.502C62.7863 31.2012 61.893 31.9631 61 32.7681C60.107 31.9631 59.2137 31.2012 58.3252 30.502C55.0995 27.9638 51.9244 26.1271 48.8106 25.1989C47.2537 24.7348 45.6703 24.507 44.1439 24.5884ZM44.475 29.8604C45.2699 29.8238 46.1995 29.9479 47.2947 30.2743C49.4851 30.9273 52.1845 32.416 55.045 34.6669C55.7601 35.2296 56.4913 35.8446 57.2232 36.4984C54.9744 38.8908 52.7528 41.5848 50.6059 44.5436C46.9727 44.9236 43.5301 45.5 40.336 46.2509C40.1348 45.2869 39.9695 44.3504 39.8393 43.4467C39.3202 39.844 39.382 36.7609 39.9117 34.5375C40.4414 32.3141 41.3316 31.0691 42.4572 30.4192C43.02 30.0943 43.6801 29.897 44.475 29.8604H44.475ZM77.525 29.8604C78.3199 29.897 78.98 30.0943 79.5428 30.4192C80.6684 31.069 81.5585 32.3141 82.0883 34.5375C82.618 36.7609 82.6798 39.844 82.1607 43.4467C82.0305 44.3504 81.8652 45.2869 81.664 46.2509C78.4699 45.5 75.0273 44.9236 71.3941 44.5436C69.2472 41.5848 67.0256 38.8908 64.7768 36.4984L64.7819 36.4933C65.5138 35.8395 66.2398 35.2297 66.9549 34.667C69.8154 32.4161 72.5148 30.9274 74.7052 30.2744C75.8004 29.948 76.73 29.8239 77.5249 29.8605L77.525 29.8604ZM61 40.2287C62.1147 41.4215 63.2276 42.6977 64.3371 44.0624C63.2335 44.0271 62.1262 43.9952 61 43.9952C59.8738 43.9952 58.7665 44.0271 57.6629 44.0624C58.7724 42.6977 59.8853 41.4215 61 40.2287V40.2287ZM61 49.2931C63.5615 49.2931 66.0578 49.3969 68.4761 49.588C69.8509 51.5868 71.1896 53.6973 72.4702 55.9155C73.7509 58.1337 74.9085 60.348 75.9522 62.5379C74.9085 64.7279 73.7509 66.9422 72.4702 69.1604C71.1896 71.3786 69.8509 73.489 68.4761 75.4879C66.0578 75.679 63.5615 75.7828 61 75.7828C58.4385 75.7828 55.9422 75.679 53.5239 75.4879C52.1491 73.489 50.8104 71.3786 49.5298 69.1604C48.2491 66.9422 47.0915 64.7279 46.0478 62.5379C47.0915 60.348 48.2491 58.1337 49.5298 55.9155C50.8104 53.6973 52.1491 51.5868 53.5239 49.588C55.9422 49.3969 58.4385 49.2931 61 49.2931ZM46.6687 50.4106C46.0863 51.3487 45.5037 52.2912 44.9406 53.2666C44.3776 54.2417 43.8526 55.2165 43.3316 56.1897C42.7038 54.5455 42.1572 52.946 41.6812 51.3833C43.271 51.0145 44.9326 50.689 46.6687 50.4106ZM75.3313 50.4106C77.0674 50.689 78.729 51.0145 80.3189 51.3833C79.8429 52.946 79.2962 54.5455 78.6684 56.1897C78.1474 55.2165 77.6224 54.2417 77.0594 53.2666C76.4963 52.2912 75.9137 51.3487 75.3313 50.4106ZM36.5591 52.7906H36.5642C37.5106 55.933 38.7347 59.2007 40.2221 62.5379C38.7347 65.8752 37.5106 69.1428 36.5642 72.2853H36.5591C35.6271 71.9784 34.7344 71.6558 33.8895 71.3178C30.5099 69.966 27.8671 68.3716 26.2064 66.8011C24.5457 65.2307 23.9145 63.8376 23.9144 62.5379C23.9144 61.2382 24.5458 59.8452 26.2064 58.2748C27.867 56.7043 30.5099 55.1099 33.8895 53.7581C34.7344 53.4201 35.6271 53.0975 36.5591 52.7906ZM85.4357 52.7906H85.4408C86.3728 53.0975 87.2656 53.4201 88.1105 53.7581C91.49 55.1099 94.1329 56.7043 95.7935 58.2748C97.4541 59.8452 98.0855 61.2382 98.0855 62.5379C98.0854 63.8376 97.4542 65.2307 95.7935 66.8011C94.1328 68.3716 91.49 69.966 88.1105 71.3178C87.2656 71.6558 86.3677 71.9784 85.4356 72.2853C84.4892 69.1428 83.2651 65.8752 81.7778 62.5379C83.2651 59.2007 84.4892 55.933 85.4356 52.7906H85.4357ZM61 57.24C59.5949 57.24 58.2474 57.7982 57.2538 58.7917C56.2602 59.7853 55.7021 61.1328 55.7021 62.5379C55.7021 63.2337 55.8391 63.9226 56.1053 64.5654C56.3716 65.2081 56.7618 65.7922 57.2538 66.2841C57.7458 66.7761 58.3298 67.1664 58.9726 67.4326C59.6153 67.6988 60.3043 67.8359 61 67.8359C61.6957 67.8359 62.3847 67.6988 63.0274 67.4326C63.6702 67.1664 64.2542 66.7761 64.7462 66.2841C65.2382 65.7922 65.6284 65.2081 65.8947 64.5654C66.1609 63.9226 66.2979 63.2337 66.2979 62.5379C66.2979 61.1328 65.7398 59.7853 64.7462 58.7917C63.7527 57.7982 62.4051 57.24 61 57.24ZM43.3316 68.8862C43.8526 69.8593 44.3776 70.8342 44.9406 71.8093C45.5037 72.7847 46.0863 73.7273 46.6687 74.6653C44.9326 74.3869 43.271 74.0614 41.6812 73.6926C42.1572 72.1299 42.7038 70.5304 43.3316 68.8862ZM78.6684 68.8862C79.2962 70.5304 79.8428 72.1299 80.3189 73.6926C78.729 74.0614 77.0674 74.3869 75.3313 74.6653C75.9137 73.7273 76.4963 72.7847 77.0594 71.8093C77.6224 70.8342 78.1474 69.8593 78.6684 68.8862ZM40.336 78.825C43.5316 79.5763 46.976 80.1523 50.6111 80.5323C52.7575 83.4892 54.975 86.1867 57.2232 88.5775L57.2181 88.5826C56.4862 89.2364 55.7602 89.8462 55.0451 90.4089C52.1846 92.6598 49.4852 94.1485 47.2948 94.8015C45.1044 95.4544 43.5829 95.3064 42.4573 94.6566C41.3317 94.0067 40.4416 92.7617 39.9118 90.5383C39.3821 88.3149 39.3203 85.2317 39.8394 81.629C39.9696 80.7254 40.1349 79.7889 40.3361 78.8249L40.336 78.825ZM81.664 78.825C81.8652 79.789 82.0305 80.7255 82.1607 81.6291C82.6798 85.2318 82.618 88.315 82.0883 90.5384C81.5586 92.7618 80.6684 94.0068 79.5428 94.6567C78.4172 95.3065 76.8957 95.4545 74.7053 94.8016C72.5149 94.1486 69.8155 92.6599 66.955 90.409C66.2399 89.8463 65.5088 89.2313 64.7769 88.5775C67.025 86.1868 69.2426 83.4892 71.3889 80.5323C75.024 80.1523 78.4684 79.5763 81.6641 78.825L81.664 78.825ZM57.6629 81.0135C58.7665 81.0488 59.8738 81.0807 61 81.0807C62.1262 81.0807 63.2335 81.0488 64.3371 81.0135C63.2276 82.3782 62.1147 83.6544 61 84.8472C59.8853 83.6544 58.7724 82.3782 57.6629 81.0135Z" fill="#00BAEC"/>
<path d="M66.0833 61.0001C66.0833 62.3482 65.5477 63.6412 64.5944 64.5945C63.6411 65.5478 62.3482 66.0834 61 66.0834C59.6518 66.0834 58.3589 65.5478 57.4056 64.5945C56.4522 63.6412 55.9167 62.3482 55.9167 61.0001C55.9167 59.6519 56.4522 58.3589 57.4056 57.4056C58.3589 56.4523 59.6518 55.9167 61 55.9167C62.3482 55.9167 63.6411 56.4523 64.5944 57.4056C65.5477 58.3589 66.0833 59.6519 66.0833 61.0001Z" fill="white"/>
<path d="M99.125 61C99.1249 65.0445 95.1081 68.9233 87.9583 71.7832C80.8085 74.6431 71.1113 76.2497 61 76.2497C50.8887 76.2497 41.1915 74.6431 34.0417 71.7832C26.8919 68.9233 22.8751 65.0445 22.875 61C22.875 58.9973 23.8611 57.0143 25.777 55.1641C27.693 53.3139 30.5012 51.6327 34.0415 50.2166C37.5817 48.8005 41.7846 47.6772 46.4101 46.9108C51.0357 46.1445 55.9933 45.75 61 45.75C66.0067 45.75 70.9643 46.1445 75.5899 46.9108C80.2154 47.6772 84.4183 48.8005 87.9586 50.2166C91.4988 51.6327 94.3071 53.3139 96.223 55.1641C98.1389 57.0143 99.125 58.9973 99.125 61V61Z" stroke="white" stroke-width="4" stroke-linejoin="bevel"/>
<path d="M41.9375 94.0172C38.4348 91.9949 37.084 86.5769 38.1822 78.955C39.2803 71.3332 42.7375 62.1318 47.7932 53.375C52.8489 44.6183 59.0889 37.0236 65.1406 32.2617C71.1923 27.4997 76.5598 25.9605 80.0625 27.9828C81.7968 28.9841 83.0211 30.8296 83.6654 33.414C84.3098 35.9984 84.3616 39.271 83.8178 43.0449C83.2741 46.8189 82.1454 51.0203 80.4964 55.4094C78.8473 59.7984 76.7101 64.2891 74.2068 68.6249C71.7034 72.9608 68.883 77.057 65.9066 80.6797C62.9301 84.3023 59.8558 87.3805 56.8594 89.7384C53.8629 92.0963 51.0028 93.6877 48.4425 94.4219C45.8822 95.156 43.6718 95.0185 41.9375 94.0172V94.0172Z" stroke="white" stroke-width="4" stroke-linejoin="bevel"/>
<path d="M41.9375 27.9828C45.4402 25.9605 50.8077 27.4997 56.8594 32.2617C62.9111 37.0236 69.1511 44.6183 74.2068 53.3751C79.2625 62.1318 82.7197 71.3332 83.8178 78.9551C84.916 86.5769 83.5652 91.995 80.0625 94.0172C76.5598 96.0395 71.1923 94.5003 65.1406 89.7383C59.089 84.9764 52.8489 77.3816 47.7932 68.6249C42.7375 59.8682 39.2804 50.6668 38.1822 43.0449C37.084 35.4231 38.4349 30.005 41.9375 27.9828V27.9828Z" stroke="white" stroke-width="4" stroke-linejoin="bevel"/>
</g>
<defs>
<clipPath id="clip0">
<rect width="122" height="122" fill="white"/>
</clipPath>
</defs>
</svg>
